<svg xmlns="http://www.w3.org/2000/svg" xmlns:xlink="http://www.w3.org/1999/xlink" width="558.08" height="553.4" xmlns:v="https://vecta.io/nano"><style><![CDATA[.B{fill:#505266}.C{fill:#fff}.D{fill:#3a3b48}.E{fill:#e72c2f}.F{fill:#8586a3}.G{fill:#631215}.H{fill:#aa2324}.I{fill:#c8c6e4}.J{fill:#a5731e}.K{fill:#cdcdd8}.L{fill:#f46f6e}.M{fill:#5c606e}.N{fill:#d3d0e9}.O{fill:#6e7184}]]></style><defs><clipPath id="A"><path d="M0 0h4186v4150H0z"/></clipPath><clipPath id="B"><path d="M3596.66 2437.06l-214.35 198.45-27.01 1514.98H1017.25V1429.24l.12.04c-1.14-21.21 6.8-42.76 23.61-58.32l844.69-782.019c29.98-27.761 76.8-25.961 104.56 4.028L3600.69 2332.49c27.76 29.99 25.96 76.8-4.03 104.57"/></clipPath><clipPath id="C"><path d="M1935.92 569.242c-17.99 0-36.02 6.52-50.25 19.699 14.23-13.179 32.27-19.699 50.25-19.699a74.49 74.49 0 0 1 11.93.969 74.49 74.49 0 0 0-11.93-.969m53.28 22.637l1.03 1.09-1.03-1.09m-152.56 42.453l-795.66 736.628c-15.76 14.58-23.73 34.43-23.73 54.33.01 17.98 6.52 36 19.7 50.23l647.49 699.39c-22.1-310.42-83.15-598.26-83.15-598.26s94.32 66.71 153.01 173.48c-1.43-228.3 9.18-640.18 82.34-1115.798m615.83 457.918l-69.18 265.83h0l-52.09 200.4c64.5-60.54 113.79-71.03 113.79-71.03s-18.97 251.73-23.66 516.39l.02-.06.08 216.92 312-824.97-280.96-303.48m513.36 554.5l-333.52 973.41-.15.52c-39.48 140.38-128.68 288.06-128.68 288.06h0 0l-72.73 72.28 216.66 234.02c14.58 15.75 34.42 23.73 54.31 23.73 17.99 0 36.02-6.52 50.25-19.7l140.02-129.62c-3.88-2.68-7.53-5.83-10.86-9.43-24.59-26.55-22.99-68.01 3.57-92.6l467.99-433.27c12.61-11.67 28.57-17.44 44.5-17.44 17.62 0 35.18 7.06 48.1 21.01 3.33 3.6 6.18 7.48 8.56 11.55l142.81-132.21c15.76-14.59 23.73-34.44 23.73-54.34-.01-17.98-6.52-36-19.7-50.23l-634.86-685.74m305.84 724.91c-6.2 0-12.64-2.7-18.69-9.24-45.46-49.1-18.25-114.48-18.25-114.48s15.09-4.96 35.82-4.96c23.02 0 52.99 6.13 76.92 31.97 22.53 24.34-8.4 49.77-31.5 49.77-6.21 0-11.86-1.84-15.75-6.03 14.45 15.6-5.46 52.97-28.55 52.97m-167.54 30.6a15.88 15.88 0 0 1-11.68-5.1c-5.97-6.45-5.58-16.52.86-22.49a15.9 15.9 0 0 1 10.81-4.24c4.28 0 8.55 1.72 11.68 5.11 5.97 6.44 5.58 16.51-.87 22.48a15.81 15.81 0 0 1-10.8 4.24m-29.4 32.98l58.08-53.77 60.83 52.11-89.52 82.88-24.65 22.82-11.77-12.71 26.12-24.19-36.98-50.57 17.86-16.54a15.83 15.83 0 0 1-10.79 4.22 15.86 15.86 0 0 1-11.68-5.1 15.92 15.92 0 0 1 .87-22.49c3.06-2.83 6.94-4.23 10.8-4.23 4.28 0 8.55 1.71 11.68 5.1 5.97 6.44 5.59 16.5-.85 22.47m-502.4 465.28l-9.17-9.89 95.67-88.57 9.16 9.89-95.66 88.57m31.93 34.49l-9.17-9.89 95.67-88.57 9.16 9.89-95.66 88.57m31.93 34.49l-9.16-9.89 95.66-88.57 9.16 9.89-95.66 88.57"/></clipPath><linearGradient x1="0" y1="0" x2="1" y2="0" gradientTransform="matrix(1e-7,-1602.36,-1602.36,-1e-7,2318.82,1550.35)" spreadMethod="pad" id="D" xlink:href="#v"><stop offset="0" stop-color="#fffffd"/><stop offset="1" stop-color="#505265"/></linearGradient><clipPath id="E"><path d="M3397.19 2536.71c-15.93 0-31.89 5.77-44.5 17.44l-467.99 433.27c-26.56 24.59-28.16 66.05-3.57 92.6 3.33 3.6 6.98 6.75 10.86 9.43l40.25-37.27a28.89 28.89 0 0 1-12.44-7.92c-10.88-11.75-10.17-30.09 1.57-40.97 5.58-5.16 12.65-7.71 19.69-7.71 7.8 0 15.57 3.12 21.28 9.29 3.52 3.81 5.83 8.31 6.94 13.02l484.57-448.62c-2.38-4.07-5.23-7.95-8.56-11.55-12.92-13.95-30.48-21.01-48.1-21.01"/></clipPath><linearGradient x1="0" y1="0" x2="1" y2="0" gradientTransform="matrix(1e-7,-1602.36,-1602.36,-1e-7,2318.82,1550.35)" spreadMethod="pad" id="F" xlink:href="#v"><stop offset="0" stop-color="#505266"/><stop offset="1" stop-color="#18171f"/></linearGradient><clipPath id="G"><path d="M2722.69 2871.04l-95.66 88.57 9.16 9.89 95.66-88.57-9.16-9.89"/></clipPath><clipPath id="H"><path d="M2690.76 2836.55l-95.67 88.57 9.17 9.89 95.66-88.57-9.16-9.89"/></clipPath><clipPath id="I"><path d="M2658.83 2802.06l-95.67 88.57 9.17 9.89 95.66-88.57-9.16-9.89"/></clipPath><clipPath id="J"><path d="M3270.55 2242.98c-20.73 0-35.82 4.96-35.82 4.96s-27.21 65.38 18.25 114.48c6.05 6.54 12.49 9.24 18.69 9.24 23.09 0 43-37.37 28.55-52.97 3.89 4.19 9.54 6.03 15.75 6.03 23.1 0 54.03-25.43 31.5-49.77-23.93-25.84-53.9-31.97-76.92-31.97"/></clipPath><clipPath id="K"><path d="M3132.81 2381.47l-58.08 53.77c0 .01-.01.01-.01.02-.01 0-.02.01-.02.01l-17.86 16.54 36.98 50.57 11.5-10.64 11.77 12.71-12.97 12.01h0l89.52-82.88-60.83-52.11"/></clipPath><clipPath id="L"><path d="M3104.12 2370.43a15.9 15.9 0 0 0-10.81 4.24c-6.44 5.97-6.83 16.04-.86 22.49a15.88 15.88 0 0 0 11.68 5.1 15.81 15.81 0 0 0 10.8-4.24c6.45-5.97 6.84-16.04.87-22.48-3.13-3.39-7.4-5.11-11.68-5.11"/></clipPath><clipPath id="M"><path d="M3063.9 2407.67c-3.86 0-7.74 1.4-10.8 4.23a15.92 15.92 0 0 0-.87 22.49 15.86 15.86 0 0 0 11.68 5.1 15.83 15.83 0 0 0 10.79-4.22s.01-.01.02-.01c0-.01.01-.01.01-.02 6.44-5.97 6.82-16.03.85-22.47-3.13-3.39-7.4-5.1-11.68-5.1"/></clipPath><clipPath id="N"><path d="M3105.32 2491.74l-11.5 10.64-26.12 24.19 11.77 12.71 24.65-22.82 12.97-12.01-11.77-12.71"/></clipPath><clipPath id="O"><path d="M2941.06 2995.58c-7.04 0-14.11 2.55-19.69 7.71-11.74 10.88-12.45 29.22-1.57 40.97a28.89 28.89 0 0 0 12.44 7.92l37.04-34.29c-1.11-4.71-3.42-9.21-6.94-13.02-5.71-6.17-13.48-9.29-21.28-9.29"/></clipPath><linearGradient x1="0" y1="0" x2="1" y2="0" gradientTransform="matrix(1e-7,-1602.36,-1602.36,-1e-7,2318.82,1550.35)" spreadMethod="pad" id="P" xlink:href="#v"><stop offset="0" stop-color="#fff"/><stop offset="1" stop-color="#505266"/></linearGradient><clipPath id="Q"><path d="M1935.92 569.242c-17.98 0-36.02 6.52-50.25 19.699h0l-49.03 45.391h0c-73.16 475.618-83.77 887.498-82.34 1115.798l.01.02c-.36-57.84.05-127.47 2.05-206.92 24.05 44.9 53.96 114.08 66 197.09 5.36 36.96 10.42 98.21 15 169.37 18.41-5.19 40.16-10.24 65.28-14.38 4.83-130.93 17.17-320.62 48.56-372.76l39.1-15.21h0s74.45-411.73 172.05-728.461l-172.12-185.91h0l-1.03-1.09h0c-11.5-11.938-26.1-19.199-41.35-21.668h0a74.49 74.49 0 0 0-11.93-.969"/></clipPath><linearGradient x1="0" y1="0" x2="1" y2="0" gradientTransform="matrix(1e-7,-1602.36,-1602.36,-1e-7,2318.82,1550.35)" spreadMethod="pad" id="R" xlink:href="#v"><stop offset="0" stop-color="#373844"/><stop offset="1" stop-color="#0f0e12"/></linearGradient><clipPath id="S"><path d="M1990.3 1507.34l-39.1 15.21c-31.39 52.14-43.73 241.83-48.56 372.76a709.41 709.41 0 0 1 27.63-3.99l.05-.8 4.38.26c17.22-2.04 35.75-3.63 55.6-4.58v-378.86"/></clipPath><linearGradient x1="0" y1="0" x2="1" y2="0" gradientTransform="matrix(1e-7,-1602.36,-1602.36,-1e-7,2318.82,1550.35)" spreadMethod="pad" id="T" xlink:href="#v"><stop offset="0" stop-color="#8586a3"/><stop offset="1" stop-color="#2a2a3a"/></linearGradient><clipPath id="U"><path d="M2162.35 778.879c-97.6 316.731-172.05 728.461-172.05 728.461h0v378.86c13.66-.65 27.96-1.01 42.88-1.01 15.43 0 31.54.38 48.33 1.21 24.07-235.6 106.92-441.74 301.78-528.32l69.18-265.83h0l-290.12-313.371"/></clipPath><clipPath id="V"><path d="M2033.18 1885.19c-14.92 0-29.22.36-42.88 1.01-19.85.95-38.38 2.54-55.6 4.58l4.38.25c-2.08 35.7-3.04 72-3.04 108.67-.01 165.74 19.79 338.95 46.5 497.19l167.85 181.3c-46.7-212.1-96.51-521.37-68.88-791.79-16.79-.83-32.9-1.21-48.33-1.21m-102.91 6.13a709.41 709.41 0 0 0-27.63 3.99c-25.12 4.14-46.87 9.19-65.28 14.38 9.83 152.71 17.44 351.09 21.02 453.09l113.3 122.38c-25.65-154.99-44.41-323.64-44.42-485.46 0-36.55.96-72.76 3.01-108.38"/></clipPath><linearGradient x1="0" y1="0" x2="1" y2="0" gradientTransform="matrix(1e-7,-1602.36,-1602.36,-1e-7,2318.82,1550.35)" spreadMethod="pad" id="W" xlink:href="#v"><stop offset="0" stop-color="#e8e8e8"/><stop offset="1" stop-color="#494b5d"/></linearGradient><clipPath id="X"><path d="M1756.36 1543.23c-2 79.45-2.41 149.08-2.05 206.92 22.36 40.67 39.54 87.14 44.38 137.95 6.66 168.38 24.14 322.82 47.45 461.47l12.24 13.21-21.02-453.09c-4.58-71.16-9.64-132.41-15-169.37-12.04-83.01-41.95-152.19-66-197.09"/></clipPath><linearGradient x1="0" y1="0" x2="1" y2="0" gradientTransform="matrix(1e-7,-1602.36,-1602.36,-1e-7,2318.82,1550.35)" spreadMethod="pad" id="Y" xlink:href="#v"><stop offset="0" stop-color="#19181c"/><stop offset="1" stop-color="#080605"/></linearGradient><clipPath id="Z"><path d="M1601.29 1576.65s61.05 287.84 83.15 598.26l161.7 174.66c-23.31-138.65-40.79-293.09-47.45-461.47-4.84-50.81-22.02-97.28-44.38-137.95l-.01-.02c-58.69-106.77-153.01-173.48-153.01-173.48"/></clipPath><clipPath id="a"><path d="M2383.29 1358.08h0l-52.09 200.4h0l52.09-200.4"/></clipPath><clipPath id="b"><path d="M2383.29 1358.08c-194.86 86.58-277.71 292.72-301.78 528.32 21.66 1.06 44.45 2.87 68.39 5.55 10.54-46.85 24.18-91.34 41.4-132.52 46.63-97.38 96.68-160.4 139.9-200.95l52.09-200.4"/></clipPath><linearGradient x1="0" y1="0" x2="1" y2="0" gradientTransform="matrix(1e-7,-1602.36,-1602.36,-1e-7,2318.82,1550.35)" spreadMethod="pad" id="c" xlink:href="#v"><stop offset="0" stop-color="#080605"/><stop offset="1" stop-color="#060403"/></linearGradient><clipPath id="d"><path d="M2081.51 1886.4c-27.63 270.42 22.18 579.69 68.88 791.79l17.57 18.98c-43.58-250.01-73.13-560.33-18.06-805.22-23.94-2.68-46.73-4.49-68.39-5.55"/></clipPath><linearGradient x1="0" y1="0" x2="1" y2="0" gradientTransform="matrix(1e-7,-1602.36,-1602.36,-1e-7,2318.82,1550.35)" spreadMethod="pad" id="e" xlink:href="#v"><stop offset="0" stop-color="#161519"/><stop offset="1" stop-color="#080605"/></linearGradient><clipPath id="f"><path d="M2444.99 1487.45s-49.29 10.49-113.79 71.03h0c-43.22 40.55-93.27 103.57-139.9 200.95-17.22 41.18-30.86 85.67-41.4 132.52-55.07 244.89-25.52 555.21 18.06 805.22l.04.04c-40.73-233.71-69.18-520.15-27.73-756.57v.01c3.81 223.61 151.92 754.61 151.92 754.61l-53.65 78.15 21.05 22.74h42.56l8.14 54.76 78.96 85.29c11.88-23.98 23.95-49.65 35.81-76.75-121.62-121.31-101.81-379.14-101.81-379.14l59.87-158.31-55.62 147.06 93.83-465.22c4.69-264.66 23.66-516.39 23.66-516.39m58.49 1421.29h0l-72.73 72.28h0l72.73-72.28"/></clipPath><clipPath id="g"><path d="M2733.43 1395.73h0l-312 824.97h0l-38.31 101.3-59.87 158.31s-19.81 257.83 101.81 379.14c29.13-66.53 57.1-141.72 78.42-222.04 73.1-275.31 113-910.78 442.51-1012.09l-212.56-229.59m-101.12 1224.43l-.15.52c-39.45 140.27-128.55 287.84-128.68 288.06h0 0s89.2-147.68 128.68-288.06l.15-.52"/></clipPath><linearGradient x1="0" y1="0" x2="1" y2="0" gradientTransform="matrix(1e-7,-1602.36,-1602.36,-1e-7,2318.82,1550.35)" spreadMethod="pad" id="h" xlink:href="#v"><stop offset="0" stop-color="#75778f"/><stop offset="1" stop-color="#242331"/></linearGradient><clipPath id="i"><path d="M2140.27 1940.64c-41.45 236.42-13 522.86 27.73 756.57l70.54 76.2 53.65-78.15s-148.11-531-151.92-754.61v-.01m161.88 855.51h-42.56l50.7 54.76-8.14-54.76"/></clipPath><clipPath id="j"><path d="M2965.83 1646.75l-333.52 973.41c35.67-126.38 280.26-822.2 333.52-973.41h0"/></clipPath><linearGradient x1="0" y1="0" x2="1" y2="0" gradientTransform="matrix(1e-7,-1602.36,-1602.36,-1e-7,2318.82,1550.35)" spreadMethod="pad" id="k" xlink:href="#v"><stop offset="0" stop-color="#fffffe"/><stop offset="1" stop-color="#505266"/></linearGradient><clipPath id="l"><path d="M2425.06 2859.45c-11.86 27.1-23.93 52.77-35.81 76.75l41.5 44.82 72.73-72.28h0c-31.12-10.74-56.97-27.9-78.42-49.29"/></clipPath><linearGradient x1="0" y1="0" x2="1" y2="0" gradientTransform="matrix(1e-7,-1602.36,-1602.36,-1e-7,2318.82,1550.35)" spreadMethod="pad" id="m" xlink:href="#v"><stop offset="0" stop-color="#bebdcb"/><stop offset="1" stop-color="#3d3d50"/></linearGradient><clipPath id="n"><path d="M2945.99 1625.32c-329.51 101.31-369.41 736.78-442.51 1012.09-21.32 80.32-49.29 155.51-78.42 222.04 21.45 21.39 47.3 38.55 78.42 49.29.13-.22 89.23-147.79 128.68-288.06l.15-.52c35.67-126.38 280.26-822.2 333.52-973.41h0l-19.84-21.43"/></clipPath><linearGradient x1="0" y1="0" x2="1" y2="0" gradientTransform="matrix(1e-7,-1602.36,-1602.36,-1e-7,2318.82,1550.35)" spreadMethod="pad" id="o" xlink:href="#v"><stop offset="0" stop-color="#b3b4c1"/><stop offset="1" stop-color="#393a4b"/></linearGradient><clipPath id="p"><path d="M2421.35 2003.78l-.02.06-93.83 465.22 55.62-147.06 38.31-101.3-.08-216.92"/></clipPath><clipPath id="q"><path d="M1930.32 1890.52l-.05.8c-2.05 35.62-3.01 71.83-3.01 108.38.01 161.82 18.77 330.47 44.42 485.46l10.86 11.73c-26.71-158.24-46.51-331.45-46.5-497.19 0-36.67.96-72.97 3.04-108.67l-4.38-.25-4.38-.26"/></clipPath><path id="r" d="M2768.91 4073.28l20.7-41.94 46.29-6.73c5.58-.81 7.8-7.66 3.77-11.59l-33.5-32.66 7.91-46.1c.95-5.55-4.88-9.78-9.86-7.16l-41.41 21.76-41.4-21.76c-4.98-2.62-10.81 1.61-9.86 7.16l7.91 46.1-33.5 32.66c-4.03 3.93-1.81 10.78 3.77 11.59l46.29 6.73 20.7 41.94c2.49 5.05 9.7 5.05 12.19 0"/><path id="s" d="M2747.29 4026.45a3.93 3.93 0 0 0-1.81.44c-2 1-2.81 3.43-1.8 5.43l14.22 28.32c.71 1.41 2.13 2.23 3.62 2.23.61 0 1.22-.14 1.81-.43 1.99-1 2.8-3.44 1.8-5.43l-14.22-28.33c-.71-1.41-2.14-2.23-3.62-2.23"/><path id="t" d="M2962.14 4073.28l20.71-41.94 46.28-6.73c5.58-.81 7.81-7.66 3.77-11.59l-33.49-32.66 7.9-46.1c.96-5.55-4.87-9.78-9.86-7.16l-41.4 21.76-41.4-21.76c-4.99-2.62-10.82 1.61-9.87 7.16l7.91 46.1-33.5 32.66c-4.03 3.93-1.8 10.78 3.77 11.59l46.29 6.73 20.7 41.94c2.5 5.05 9.7 5.05 12.19 0"/><path id="u" d="M3155.38 4073.28l20.7-41.94 46.29-6.73c5.57-.81 7.8-7.66 3.77-11.59l-33.5-32.66 7.91-46.1c.95-5.55-4.88-9.78-9.87-7.16l-41.4 21.76-41.4-21.76c-4.99-2.62-10.82 1.61-9.86 7.16l7.9 46.1-33.49 32.66c-4.04 3.93-1.81 10.78 3.77 11.59l46.29 6.73 20.7 41.94c2.49 5.05 9.69 5.05 12.19 0"/><linearGradient id="v" gradientUnits="userSpaceOnUse"/></defs><g transform="matrix(.133333 0 0 -.133333 0 553.4)"><path d="M2116.74 225.152c-308.51 0-619.46 38.297-895.71 106.746-38.28 9.481-76.34 20.102-114 31.852 43.9 47.852 70.7 111.66 70.7 181.719 0 148.492-120.37 268.863-268.867 268.863h-95.05-.434c-111.707-.172-207.445-68.48-247.879-165.582-63.73 54.641-118.754 114.781-162.297 180.109-128.691 193.101-147.32 414.871-104.418 619.521 34.496 164.54 114.43 311.93 181.469 467.34 29.199 67.69 36.144 130.41 31.469 195.21l369.953-325.22 51.543 187.19 262.211-268.25-236.418-255.37c-59.883-64.68-55.992-165.66 8.687-225.54l120.711-111.75c.08-.08.15-.14.23-.22l776.82-719.18c30.71-28.442 69.6-42.488 108.39-42.488 42.91 0 85.71 17.199 117.16 51.179L3740.03 2182.45c59.89 64.69 56 165.67-8.69 225.55l-776.82 719.19c-.09.08-.17.16-.26.24l-120.68 111.72c-30.71 28.44-69.6 42.49-108.39 42.49-42.91 0-85.7-17.2-117.15-51.18l-205.23-221.67-15.57 15.47-116.98 116.25 8.82 67.89c.15.12 113.75 83.89 148.18 169.94 34.45 86.09 52.36 156.37-9.65 219.76-62.01 63.38-147.32 139.17-166.67 195.67-4.84 14.13-12.13 20.24-20.05 20.24-23.77 0-53.27-55.03-39.59-113.94 12.9-55.59 15.51-88.85 15.93-103.55-9.66 9.02-22.03 21.79-31.84 36.03-11.24 16.33-18.46 32.65-25.93 32.65-5.14 0-10.4-7.74-17.17-28.52-12.24-37.53 2.03-88.5 10.41-112.79a812.42 812.42 0 0 1-36.83-49.81c-25.2-36.92-50.88-81.13-72.49-131.79h0 0c1.04-11.42 34.11-33.18 72.46-52.68l-7.41-69.46c-36.76 19.37-115.76 58.05-198.85 80.29h0s-62.03-32.72-126.9-95.07l46.39 132.36.5 1.5a58.37 58.37 0 0 1 2.79 17.73c.01 17.43-7.84 34.16-21.48 45.26l74.97-33.12c4-1.83 8.31-2.74 12.58-2.74 5.85 0 11.66 1.71 16.61 5.14 41.51 28.77 52.22 72.02 54.83 96.66v.04c.01.05.01.11.02.18 0 .02 0 .04.01.07 0 .04 0 .07.01.12 0 .02 0 .05.01.07 0 .04 0 .09.01.13 0 .03.01.07.01.12 0 .03.01.07.01.11 0 .02.01.05.01.07a1.1 1.1 0 0 0 .02.18h0a29.96 29.96 0 0 1-12.22 27.18h0l-60.5 43.97c-18.91 11.37-37.1 23.49-54.54 36.1l2.18 4.93-28.35 35.06s-6.24-2.31-15.84-7.61c-129.28 105.9-207.44 228.47-207.44 228.47a8.25 8.25 0 0 0 .07-.49l.03-.19c.01-.08.02-.19.04-.28l.03-.25c.01-.06.02-.15.03-.21.01-.1.03-.2.04-.29.01-.06.01-.09.02-.14 5.01-37.02 2.52-70.98-5.04-102.02l.06-.06c-28.76-118.01-131.77-193.1-182.35-227.23 91.95-6.86 166.36-17.56 266.82-50.95-18.41-3.49-34.83-15.78-42.79-34.34h0l-287.97-672.06c-.87-2.04-1.69-4.1-2.46-6.16h0c-.06-.16-.12-.33-.17-.49a1.22 1.22 0 0 1-.07-.17c0-.02-.01-.04-.02-.06-21.98-60.37 3.18-128.13 59.62-159.41.01 0 .01-.01.02-.01.08-.05.18-.1.27-.15a3 3 0 0 0 .26-.15c.01 0 .02-.01.03-.01l.26-.14c.01-.01.03-.02.04-.02a3.14 3.14 0 0 1 .25-.14c.09-.05.18-.09.26-.14l.06-.03c.08-.04.16-.09.24-.13l.06-.03c.06-.04.14-.08.2-.11l.06-.03c.08-.04.16-.08.24-.13l.06-.03c.08-.04.16-.09.23-.12.01-.01.02-.01.03-.02l.24-.12c.02-.02.05-.03.07-.04l.24-.12c.02-.01.03-.02.05-.03.07-.04.14-.07.21-.11l.06-.03c.08-.04.16-.08.24-.13l.06-.03a3.15 3.15 0 0 0 .26-.13h0l2.45-1.25c.15-.08.3-.15.45-.23 19.05-9.64 39.23-14.16 59.05-14.16 39.5 0 77.58 17.96 102.56 49.23l199.88 166.06c-31.33-190.64-55.55-394.16-68.17-541.88l-438.52-473.67-358.54 366.8-54.64-198.44-345.813 304.01-10.25 46c-39.969 175.29-60.414 350.59-52.312 522.01 11.199 236.89 76.922 466.36 220.972 678.15 308.266 453.25 876.413 645.21 1445.323 645.21 169.76 0 339.61-17.1 502.64-49.43v-207.36c0-11.45 9.28-20.74 20.74-20.74h618.89l39.18-22.6c222.45-132.42 413.19-336.52 488.43-590.1 60.77-204.82 43.22-424.76 40.64-639.48-2.9-242.09 45.21-421.29 138.37-637.86 74.56-173.34 89.07-379.91 57.15-565.97-69.26-403.728-357.64-732.118-702.27-919.661-320.09-174.168-748.9-249.907-1182.63-249.907M867.797 2263.24h65.66c102.573 0 185.733 83.15 185.733 185.73 0 102.57-83.16 185.73-185.733 185.73h-65.66 0c-97.871 0-178.059-75.7-185.211-171.74-.348-4.62-.52-9.28-.52-13.99h0 0 0v-.33-.1-.22-.13-.2-.13c0-.07.004-.14.004-.21v-.11-.23c0-.03.004-.07.004-.1v-.31l.012-.69v-.03l.004-.3v-.05l.008-.29v-.05l.004-.3v-.03c2.027-100.82 84.386-181.92 185.695-181.92h0M2270.26 3140.5h0" fill="#e8e8ed"/><g class="F"><path d="M1393.94 1501.58L933.219 1972.9l-51.543-187.19-532.637 468.24 53.809 61.2 434.832-382.27 54.64 198.44 559.89-572.78-58.27-56.96"/><path d="M289.746 2125.42l234.313 260.32-268.575 6.13z"/></g><path d="M1142 1759.32l251.94-257.74 120.54-10.26-331.36 342.5-41.12-74.5" class="D"/><path d="M1865.46 392.59l-776.82 719.18c-64.68 59.89-68.57 160.87-8.69 225.55L2728.98 3118.5c59.88 64.68 160.86 68.57 225.54 8.69L3731.34 2408c64.69-59.88 68.58-160.86 8.69-225.55L2091.01 401.281c-59.89-64.691-160.87-68.582-225.55-8.691" fill="#25252d"/><path d="M1824.63 446.832l2.65 2.867-776.82 719.181c-33.28 30.82-50.14 72.67-50.14 114.56 0 37.56 13.54 75.09 40.98 104.73l1638.64 1769.96c30.37 32.8 71.69 49.37 113.28 49.38 37.9 0 75.95-13.78 106.06-41.64l776.82-719.19c33.28-30.82 50.14-72.66 50.14-114.56 0-37.55-13.54-75.08-40.98-104.72L2046.62 457.441c-30.37-32.8-71.69-49.382-113.28-49.382-37.9 0-75.96 13.773-106.06 41.64l-2.65-2.867-2.66-2.871c31.58-29.242 71.58-43.719 111.37-43.719 43.65 0 87.12 17.438 119.02 51.887L3690.99 2222.09c28.82 31.12 43.07 70.61 43.07 110.03 0 43.98-17.72 87.96-52.65 120.3l-776.82 719.18c-31.59 29.24-71.59 43.73-111.37 43.72-43.65.01-87.12-17.43-119.02-51.88L1035.57 1393.48c-28.82-31.13-43.07-70.61-43.066-110.04-.004-43.98 17.716-87.95 52.646-120.29l776.82-719.189 2.66 2.871" class="F"/><path d="M1744.52 504.551L967.699 1223.74c-64.679 59.88-68.57 160.86-8.687 225.54L2608.04 3230.46c59.88 64.69 160.86 68.58 225.54 8.69l776.82-719.18c64.69-59.89 68.58-160.87 8.69-225.55L1970.07 513.242c-59.89-64.683-160.87-68.57-225.55-8.691" class="B"/><path d="M1885.67 588.941l-844.69 782.019c-29.99 27.76-31.79 74.58-4.03 104.56l1610.46 1739.52c27.76 29.99 74.58 31.8 104.56 4.03l844.69-782.01c29.99-27.77 31.79-74.58 4.03-104.57L1990.23 592.969c-27.76-29.989-74.58-31.789-104.56-4.028" fill="#fffffd"/><path d="M1449.85 887.898c-19.76-21.339-53.07-22.617-74.4-2.867-21.34 19.758-22.62 53.071-2.87 74.399 19.76 21.34 53.07 22.621 74.4 2.871 21.34-19.75 22.62-53.059 2.87-74.403" class="C"/><path d="M3515.93 2064.91c-14.41 13.35-36.92 12.48-50.26-1.93l-141.94-153.32c-13.34-14.41-12.47-36.91 1.94-50.25l26.1-24.16 24.16 26.1 141.93 153.31 24.16 26.09-26.09 24.16" class="B"/><path d="M3402.02 1837.19c-13.34-14.42-35.84-15.28-50.25-1.94-14.42 13.34-15.28 35.84-1.94 50.26l141.94 153.31c13.34 14.41 35.84 15.28 50.25 1.93 14.42-13.34 15.28-35.84 1.94-50.25l-141.94-153.31" class="I"/><path d="M3289.43 1820.27c-14.41 13.34-36.91 12.47-50.25-1.94l-141.94-153.31c-13.35-14.42-12.48-36.92 1.93-50.26l26.1-24.16 24.16 26.1 141.94 153.31 24.16 26.1-26.1 24.16" class="B"/><path d="M3175.52 1592.54c-13.34-14.41-35.84-15.28-50.25-1.94s-15.28 35.85-1.94 50.26l141.94 153.31c13.34 14.41 35.84 15.28 50.26 1.94 14.41-13.35 15.28-35.85 1.93-50.26l-141.94-153.31" class="I"/><g class="B"><path d="M2881.13 3080.02c-24.59-26.55-22.99-68.01 3.57-92.6l467.99-433.27c26.55-24.58 68.01-22.98 92.6 3.57 24.58 26.55 22.98 68.01-3.57 92.59l-468 433.28c-26.55 24.58-68.01 22.98-92.59-3.57m-149.28-199.09l-95.66 88.57-9.16-9.89 95.66-88.57 9.16 9.89m-31.93-34.49l-95.66 88.57-9.17-9.89 95.67-88.57 9.16 9.89m-31.93-34.49l-95.66 88.57-9.17-9.89 95.67-88.57 9.16 9.89m632.23-493.26c18.33 19.8 75.84-12.85 47.25-43.74-45.46-49.11-112.74-27.01-112.74-27.01s-27.21 65.38 18.25 114.48c28.6 30.89 65.57-23.93 47.24-43.73m-243.38 133.12l75.97-70.34 60.83 52.11-89.52 82.88-47.28-64.65"/><path d="M3092.45 2397.16c-5.97-6.45-5.58-16.52.86-22.49a15.92 15.92 0 0 1 22.49.87c5.97 6.44 5.58 16.51-.87 22.48-6.44 5.97-16.51 5.59-22.48-.86m-40.22 37.23a15.92 15.92 0 0 1 .87-22.49c6.45-5.97 16.51-5.58 22.48.87a15.92 15.92 0 0 1-.86 22.49 15.92 15.92 0 0 1-22.49-.87m15.47 92.18l37.62-34.83 11.77 12.71-37.62 34.83-11.77-12.71"/></g><path d="M2919.8 3044.26c-10.88-11.75-10.17-30.09 1.57-40.97 11.75-10.87 30.09-10.17 40.97 1.58 10.87 11.75 10.17 30.09-1.58 40.97-11.75 10.87-30.09 10.17-40.96-1.58" class="C"/><g clip-path="url(#A)"><g clip-path="url(#B)"><g fill="#263c7f"><path d="M1806.55 3616.49s-116.45-43.04-116.38-185.03l74.41-8.39 70.32 158.36-28.35 35.06"/><path d="M1658.01 3218.34l.52-.3c14.23-8.04 32.29-3.02 40.32 11.22l108.34 191.78-52.06 29.41-108.33-191.79c-8.04-14.23-3.02-32.28 11.21-40.32"/></g><path d="M1583.27 3837.35s118.07-185.15 303.99-296.95l60.5-43.97a29.96 29.96 0 0 0 12.22-27.18c-2.41-24.45-12.82-68.56-54.94-97.75-8.56-5.94-19.71-6.72-29.19-2.4-231.91 105.63-333.69 126.2-479.65 137.09 64.11 43.26 212.43 152.31 187.07 331.16" class="E"/><path d="M1959.87 3468.16v.04-.04m.02.22c0 .02 0 .04.01.07-.01-.03-.01-.05-.01-.07m.02.19c0 .02 0 .05.01.07-.01-.02-.01-.05-.01-.07m.02.2c0 .03.01.07.01.12 0-.05-.01-.09-.01-.12m.02.23c0 .02.01.05.01.07 0-.02-.01-.05-.01-.07m.03.25h0a29.96 29.96 0 0 1-12.22 27.18 29.96 29.96 0 0 0 12.22-27.18h0m-381.43 264.17l-.06.06c7.56 31.04 10.05 65 5.04 102.02 5.01-37.02 2.58-71.04-4.98-102.08m4.96 102.22c-.01.09-.03.19-.04.29.01-.1.03-.2.04-.29m-.07.5l-.03.25.03-.25m-.07.53l-.03.19.03-.19" fill="#d3e9f6"/><path d="M1952.8 3435.79c-156.09 89.59-302.27 225.77-374.25 297.63 7.56 31.04 9.99 65.06 4.98 102.08-.01.04-.01.09-.02.14-.01.09-.03.19-.04.29l-.03.21-.03.25c-.02.1-.03.19-.04.28l-.03.19a8.25 8.25 0 0 1-.07.49s118.07-185.15 303.99-296.95l60.5-43.97h0a29.96 29.96 0 0 0 12.22-27.18h0c-.01-.06-.02-.12-.02-.18 0-.02-.01-.05-.01-.07 0-.04-.01-.08-.01-.11 0-.05-.01-.09-.01-.12-.01-.04-.01-.09-.01-.13-.01-.02-.01-.05-.01-.07-.01-.04-.01-.08-.01-.12-.01-.03-.01-.05-.01-.07-.01-.06-.01-.13-.02-.18v-.04c-.95-8.89-2.95-20.2-7.07-32.37" fill="#dc809c"/><path d="M1910.57 3526.93c.53-24.44-7.54-75.93-70.79-135.86-9.56-9.06-23.68-11.53-35.86-6.51l-113.75 46.9s87.83 38.5 116.38 185.03c54.07-35.79 79.57-54.45 91.58-64.14 7.74-6.24 12.23-15.49 12.44-25.42" fill="#373844"/><path d="M1378.04 3734.87c-54.1-95.78-59.43-195.18-11.9-222.03s129.92 29.03 184.02 124.8 59.42 195.17 11.89 222.02-129.91-29.02-184.01-124.79" fill="#9a1f20"/><path d="M1388.79 3728.79c-48.2-85.31-55.35-172.5-15.98-194.74 39.38-22.24 110.36 28.89 158.55 114.2 48.2 85.31 55.35 172.5 15.97 194.75-39.37 22.24-110.35-28.89-158.54-114.21" class="C"/><path d="M1433.47 3641.43l51.28 90.77c23.03-13.01 59.23-24.6 72.23-28.55-6.55-18.1-15.1-36.79-25.62-55.4-10.76-19.05-22.66-36.37-35.08-51.58-26.9 24.95-62.81 44.76-62.81 44.76" class="E"/><g fill="#373844"><path d="M1444.78 3695.94c-14.14-25.03-19.04-49.02-10.95-53.59 8.08-4.56 26.1 12.02 40.24 37.04 14.13 25.03 19.04 49.02 10.95 53.59s-26.11-12.02-40.24-37.04m454.8-395.5s-82.32-43.43-156.45-125.54c-74.14-82.11-340.99-348.96-340.99-348.96l116.01-244.77 304.21 252.74 77.22 466.53m-140.37-1359.8s-37.18-622.8 90.69-1389.011c548.3-29.25 743.45 0 743.45 0L2241.32 1905.65c-287.63 90.66-482.11 34.99-482.11 34.99"/></g><path d="M1899.58 2025.55s2.33-421.12 51.62-503l90.22-35.1s-52.63 321.69-26.32 538.1c26.32 216.41-115.52 0-115.52 0" class="F"/><path d="M2241.32 1905.65c-95.11 29.98-179.95 43.9-251.02 49.18v-447.49s124.17-686.668 262.01-968.61c245.4-1.429 341.04 12.899 341.04 12.899L2241.32 1905.65" class="B"/><path d="M1759.21 1940.64s152.68-96.4 482.11-34.99l29.68 710.81-.74 524.04-200.19 59.23-284.54-815.93-26.32-443.16" fill="#e8e8e8"/><path d="M1914.46 2665.24c23.23 87.01 47.44 163.22 70.22 227.83 39.92 38.91 92.98 92.99 105.72 117.45l.12.06c-14.62-51.05-34.4-123.81-55.13-210.99-32.08-51.74-72.72-102.73-120.93-134.35m136.13 159.97c15.95 65.44 31.05 121.61 43.29 165.08l7.1 24.92c17.93 7.16 32.6 9.03 42.99 9.03 11.19 0 17.43-2.16 17.51-2.19h0l-41.52-43.77s-24.33-73.76-69.37-153.07" fill="#9d9eb1"/><path d="M1775.66 2217.68l-16.45-277.04s-9.04-151.71-2.85-397.41c24.05 44.9 53.96 114.08 66 197.09 21.54 148.56 38.27 689.53 38.27 689.53l-84.97-212.17" fill="#19181c"/><path d="M2118.92 3090.06l-97.69-73.58 42.09 136.79 27.08-8.38 28.52-54.83" fill="#fffffd"/><path d="M2090.4 3144.89s-261-480.34-291.71-1256.79c-17.55-184.24-197.4-311.45-197.4-311.45s61.41 289.52 83.35 600.98c21.93 311.45 114.05 999.81 214.94 1122.81 114.06-30.53 220.38-92.04 220.38-92.04l-29.56-63.51" class="F"/><path d="M1860.63 2429.85c86.75 451.74 229.77 715.04 229.77 715.04l29.56 63.51s-39.22 22.67-95.53 47.32l-129.23-239.24 39.48-20.53-74.05-61.6v-504.5" class="B"/><path d="M2118.92 3090.06l97.46-155.71 34.56 70.29 19.32 135.86-151.34-50.44" class="C"/><path d="M2279.08 3208.4s113.73 83.84 148.18 169.94c34.45 86.09 52.36 156.37-9.65 219.76-62.01 63.38-147.32 139.17-166.67 195.67-19.36 56.5-77.88-15.16-59.64-93.7 18.23-78.55 15.9-112.52 15.9-112.52l43.74-255.41 28.14-123.74" fill="#8e1e1d"/><path d="M2142.7 3523.89c-8.38 24.29-22.65 75.26-10.41 112.79 6.77 20.78 12.03 28.52 17.17 28.52 7.47 0 14.69-16.32 25.93-32.65 9.81-14.24 22.18-27.01 31.84-36.03l.04-1.77c-8.05-7.61-20.77-20.17-36.18-37.36a66.2 66.2 0 0 1-11.07 3.65c-.68.16-1.37.23-2.04.23-3.97 0-7.57-2.71-8.52-6.75a8.77 8.77 0 0 1 6.5-10.56c.9-.22 1.81-.46 2.73-.73-5.14-6.02-10.49-12.48-15.99-19.34" fill="#48161b"/><path d="M2207.27 3594.75l-.04 1.77.97-.9-.93-.87" fill="#200809"/><path d="M2107.95 3309.39l-17.55-164.5 28.52-54.83 151.34 50.44 21.93 168.89h-184.24" class="L"/><path d="M2100.03 3235.16l5.81 54.45c41.4-21.06 88.96-39.49 109.08-39.49.6 0 1.18.02 1.73.05h0 0s-49.22-10.68-116.62-15.01" fill="#510f11"/><g class="L"><path d="M2216.65 3603.3s-113.09-96.51-183.27-261.01c2.19-24.12 147.21-94.31 183.27-92.12 36.06 2.2 101.86 85.54 101.86 85.54s-19.74 2.2-10.96 19.74c8.77 17.55 37.28 74.58 24.12 122.83-13.16 48.26-35.09 85.54-6.58 65.8 28.52-19.74 50.45-65.8 50.45-43.87 0 21.94-47.99 114.06-158.89 103.09"/><path d="M2393.09 3300.44c0-27.86-22.59-50.44-50.45-50.44s-50.45 22.58-50.45 50.44 22.59 50.45 50.45 50.45 50.45-22.59 50.45-50.45"/></g><g fill="#4e191e"><path d="M2250.65 3485.78l.06 1.88-.09-1.88h.03l.06 1.88-.09-1.88c.38 0 8.75-.52 18.02-4.85 9.32-4.39 19.4-12.02 25.32-27.32 1.73-4.52 6.81-6.79 11.33-5.06 4.52 1.74 6.79 6.81 5.05 11.34-7.91 20.79-22.97 32.04-35.51 37.5-12.6 5.54-22.9 5.89-23.61 5.93-4.84.16-8.89-3.64-9.05-8.48-.16-4.85 3.64-8.9 8.48-9.06m-94.69 58.18c9.78-2.38 20.74-7.67 29.55-20.74 2.69-4.02 8.14-5.1 12.17-2.4 4.02 2.69 5.1 8.14 2.4 12.17-11.46 17.19-27.14 25.04-40.06 28.05-4.72 1.11-9.45-1.8-10.56-6.52a8.77 8.77 0 0 1 6.5-10.56"/></g><path d="M2150.39 2678.19c32.9 149.44 64.26 250.6 65.92 255.93-15.8-67.75-32.95-148.56-48.35-236.95l-17.57-18.98" fill="#161519"/><path d="M2141.48 3359.36c21.02-11.72 45.29-11.98 65.72-2.91-7.49 9.18-21.11 21.34-40.95 21.85-17.55.46-30.71-4.08-39.18-8.3 4.3-4.01 9.04-7.65 14.41-10.64" fill="#8e1e1d"/><path d="M2107.8 3399.96l85.92-47.88c10.45 2.33 19.07 5.52 22.66 9.2l-112.68 62.79c-.04-8.25 1.46-16.37 4.1-24.11" class="C"/><path d="M2185.12 3469.08l-31.63-36.43 17.18-14.89 4.18 4.82-12.36 10.71 27.45 31.6-4.82 4.19" fill="#23080a"/><path d="M2270.26 3140.5s-277.09-907.31-78.96-1381.07c116.25-242.73 253.69-271.98 253.69-271.98s-55.56 736.97 0 1014.79c55.57 277.83 58.49 406.5 58.49 406.5l-233.22 231.76" class="F"/><path d="M2503.48 2908.74s89.2-147.68 128.68-288.06c39.48-140.37 343.89-1002.94 343.89-1002.94l-223.72-271.97-429.08 1134.54s-27.4 356.78 180.23 428.43" fill="#75778f"/><path d="M2342.64 3068.58l-72.38 71.92s-216.21-708.12-129.99-1199.86v.01c3.81 223.61 151.92 754.61 151.92 754.61l-69.26 100.89h79.22l40.49 272.43" class="B"/><path d="M1620.24 3420.9l-287.98-672.06c-27.17-63.42-.55-137.04 60.9-168.42l2.45-1.25c70.74-36.12 157.1-1.55 183.37 73.41l240.09 685.15c9.98 28.5-3.44 59.91-30.94 72.39l-90.2 40.92c-29.77 13.51-64.82-.09-77.69-30.14" fill="#75778f"/><path d="M1792.01 3350.05l34.81-11.73c18.38-6.19 27.83-26.52 20.7-44.56l-27.44-69.5a33.9 33.9 0 0 0-35.86-21.16l-41.1 5.3 48.89 141.65" fill="#f57475"/><path d="M1390.73 2725.96c-24.53 0-47.65-5.75-68.36-15.72-5.24-52.41 21.55-104.68 70.79-129.82l2.45-1.25c51.32-26.21 110.75-15.07 149.61 21.57-15.07 71.52-78.49 125.22-154.49 125.22" class="F"/><path d="M1709.31 3024.51l109.76 313.22c9.98 28.5-3.44 59.91-30.94 72.39l-90.2 40.92c-29.77 13.51-64.82-.09-77.7-30.14l-125.76-293.5c62.26-35.39 145.37-78.99 214.84-102.89" class="L"/><path d="M1473.66 3078.84c74.44-49.92 168.29-84.13 219.45-100.56l50.51 144.15c-93.66 11.45-175.27 70.36-209.21 98.17l-60.75-141.76" class="B"/><g fill="#23080a"><path d="M1814.66 3324.17l-91.27 42.92-2.72-5.78 91.28-42.91m-18.71-54.94l-95.38 39.92-2.46-5.88 95.38-39.93"/></g><path d="M2033.38 3342.29h0c21.61 50.66 47.29 94.87 72.49 131.79-25.2-36.92-50.88-81.13-72.49-131.79" fill="#f3f3f5"/><path d="M2332.03 3476.93l-.06.21.06-.21m-.06.22l-.3 1.13c-6.95 25.51-16.36 47.95-19.47 60.52 3.11-12.57 12.52-35.01 19.47-60.52l.3-1.13m43.32 19.74l.03.17-.03-.17m.12 5.45c-2.6 23.7-45.73 101.86-140.78 101.86a178.03 178.03 0 0 1-9.97-.28 178.12 178.12 0 0 0 9.98.28c95.05 0 138.17-78.16 140.77-101.86m-53.16 43.62a17.91 17.91 0 0 1-.67.42 17.91 17.91 0 0 0 .67-.42m-97.87 57.95h.01" fill="#d63025"/><path d="M2133.69 3276.28c-48.71 21.94-99.03 51.88-100.31 66.01 21.61 50.66 47.29 94.87 72.49 131.79 18.46 27.07 36.67 50.23 52.82 69.15 9.05-2.69 18.82-8.15 26.82-20.01 1.69-2.52 4.47-3.89 7.29-3.89a8.71 8.71 0 0 1 4.88 1.49c4.02 2.69 5.1 8.14 2.4 12.17-8.33 12.49-18.88 20.05-28.99 24.4 26.89 29.97 45.56 45.91 45.56 45.91 2.62.26 5.19.46 7.73.61h.01c.09 0 .18.01.27.01a178.03 178.03 0 0 0 9.97.28c95.05 0 138.18-78.16 140.78-101.86.09-.77.13-1.48.13-2.13h0c0-.85-.03-1.6-.1-2.26-.03-.29-.06-.56-.11-.81 0-.03-.01-.06-.01-.08l-.03-.17c-.33-1.7-.97-2.46-1.91-2.46-6.18 0-25.05 33.56-48.29 49.65h0c-.16.12-.33.23-.49.34l-2.35 1.54a17.91 17.91 0 0 1-.67.42c-3.45 2.11-5.92 3.09-7.59 3.09-3.32 0-3.47-3.91-1.79-10.67 3.11-12.57 12.52-35.01 19.47-60.52l.3-1.13v-.01l.06-.21c2.11-8.26 2.99-16.76 3.02-25.26-26.5-37.81-102.29-135.65-201.36-175.39m8.72 82.57c11.08-5.97 23.02-8.8 34.8-8.8 7.75 0 15.42 1.22 22.74 3.58 7.57 2.12 13.58 4.73 16.43 7.65h0 0l-112.68 62.79v-.19h0c-.05-25.89 13.56-51.03 37.78-64.52h0l.93-.51m104.6 89.44c-4.07 0-8.08-1.97-10.53-5.6l-11.37-16.84c-3.93-5.81-2.4-13.71 3.41-17.63a12.66 12.66 0 0 1 7.1-2.18c4.08 0 8.08 1.96 10.54 5.6l11.37 16.84a12.71 12.71 0 0 1-3.42 17.63 12.66 12.66 0 0 1-7.1 2.18m-61.89 20.79l-31.63-36.43 17.18-14.89 4.18 4.82-12.36 10.71 27.45 31.6-4.82 4.19m65.53 16.7c.66-.02 8.89-.6 17.99-4.85 9.32-4.39 19.4-12.02 25.32-27.32a8.78 8.78 0 0 1 8.19-5.64 8.85 8.85 0 0 1 3.14.58c4.52 1.74 6.79 6.81 5.05 11.34-7.91 20.79-22.97 32.04-35.51 37.5-12.6 5.54-22.9 5.89-23.61 5.93h-.29a8.77 8.77 0 0 1-8.76-8.48c-.16-4.84 3.62-8.88 8.45-9.06h0 0 .03 0 0m-97.84 17.21c-3.47 0-6.89-1.67-8.98-4.77l-9.69-14.35c-3.35-4.96-2.04-11.68 2.91-15.03 1.86-1.25 3.97-1.85 6.05-1.85 3.48 0 6.89 1.67 8.98 4.76l9.69 14.36a10.83 10.83 0 0 1-2.91 15.03 10.8 10.8 0 0 1-6.05 1.85" fill="#f9a8a2"/><g fill="#801a1b"><path d="M2235.62 3406.04a12.66 12.66 0 0 0-7.1 2.18c-5.81 3.92-7.34 11.82-3.41 17.63l11.37 16.84c2.45 3.63 6.46 5.6 10.53 5.6a12.66 12.66 0 0 0 7.1-2.18 12.71 12.71 0 0 0 3.42-17.63l-11.37-16.84c-2.46-3.64-6.46-5.6-10.54-5.6m-92.52 60.95c-2.08 0-4.19.6-6.05 1.85-4.95 3.35-6.26 10.07-2.91 15.03l9.69 14.35c2.09 3.1 5.51 4.77 8.98 4.77a10.8 10.8 0 0 0 6.05-1.85 10.83 10.83 0 0 0 2.91-15.03l-9.69-14.36c-2.09-3.09-5.5-4.76-8.98-4.76"/></g><g fill="#7c2a33"><path d="M2302.15 3447.97a8.78 8.78 0 0 0-8.19 5.64c-5.92 15.3-16 22.93-25.32 27.32-9.1 4.25-17.33 4.83-17.99 4.85h0 0-.03 0c-4.83.18-8.61 4.22-8.45 9.06a8.77 8.77 0 0 0 8.76 8.48h.29c.71-.04 11.01-.39 23.61-5.93 12.54-5.46 27.6-16.71 35.51-37.5 1.74-4.53-.53-9.6-5.05-11.34a8.85 8.85 0 0 0-3.14-.58m-109.35 71.36c-2.82 0-5.6 1.37-7.29 3.89-8 11.86-17.77 17.32-26.82 20.01l12.4 14.16c10.11-4.35 20.66-11.91 28.99-24.4 2.7-4.03 1.62-9.48-2.4-12.17a8.71 8.71 0 0 0-4.88-1.49"/></g><path d="M2177.21 3350.05c-11.78 0-23.72 2.83-34.8 8.8a72.99 72.99 0 0 1 34.73-8.78c7.41 0 14.76 1.12 21.79 3.29l1.02.27c-7.32-2.36-14.99-3.58-22.74-3.58m-35.73 9.31c-24.22 13.49-37.83 38.63-37.78 64.52-.01-8.18 1.48-16.24 4.1-23.92l41.06-22.89c-9.11-1.57-16.4-4.39-21.79-7.07 4.3-4.01 9.04-7.65 14.41-10.64m74.9 1.92l-112.68 62.79v-.19.19l112.68-62.79" fill="#801a1b"/><path d="M2177.14 3350.07a72.99 72.99 0 0 0-34.73 8.78l-.93.51h0c-5.37 2.99-10.11 6.63-14.41 10.64 5.39 2.68 12.68 5.5 21.79 7.07l44.86-24.99c1.8.4 3.54.83 5.21 1.28-7.03-2.17-14.38-3.29-21.79-3.29" fill="#d63025"/><path d="M2193.72 3352.08l-44.86 24.99-41.06 22.89c-2.62 7.68-4.11 15.74-4.1 23.92h0v.19l112.68-62.79c-2.85-2.92-8.86-5.53-16.43-7.65l-1.02-.27c-1.67-.45-3.41-.88-5.21-1.28" class="C"/><path d="M2170.67 3417.76l-17.18 14.89 31.63 36.43 4.82-4.19-27.45-31.6 12.36-10.71-4.18-4.82" fill="#3e0b0e"/><path d="M2387.24 3024.26l-116.98 116.24h0 0l116.98-116.24" fill="#f3f3f5"/><path d="M2270.26 3140.5v.01-.01" fill="#f9a8a2"/><path d="M2389.25 2936.2c-18.13 36.58-35.85 69.27-51.84 97.2l5.23 35.18-72.38 71.92h0l116.98-116.24 43.51-43.24-41.5-44.82" fill="#bdbdcc"/><path d="M2337.41 3033.4c-38.39 67.04-66.83 106.66-67.15 107.1l72.38-71.92-5.23-35.18" fill="#7b7d99"/><path d="M1329.54 2741.96c.01.02.02.04.02.06 0-.02-.01-.04-.02-.06m.09.23l.17.49-.17-.49m.17.49l2.46 6.16 287.97 672.06-85.82-200.3h0l-20.42-47.65-19.52-45.55h0l-9.11-21.26-153.1-357.3-2.46-6.16" fill="#878a95"/><path d="M1326.76 2661.23c-7.41 25.81-6.95 53.99 2.78 80.73.01.02.02.04.02.06.02.06.04.12.07.17.05.16.11.33.17.49h0c.77 2.06 1.59 4.12 2.46 6.16l153.1 357.3-11.7-27.3c24.19-16.23 50.43-30.79 76.59-43.62-28.44-103.55-67.82-214.33-121.99-313.75-12.03 2.94-24.6 4.49-37.53 4.49-24.53 0-47.65-5.75-68.36-15.72-1.66-16.64-.1-33.27 4.39-49.01" fill="#454757"/><path d="M1355.96 2608.9c-13.74 15.07-23.66 33.04-29.2 52.33-4.49 15.74-6.05 32.37-4.39 49.01 20.71 9.97 43.83 15.72 68.36 15.72 12.93 0 25.5-1.55 37.53-4.49-21.66-39.73-45.68-77.65-72.3-112.57" class="B"/><path d="M1494.47 3127.4h0l19.52 45.55-19.52-45.55m90.9 56.37c-21.72 13.83-39.2 27.2-50.96 36.83l85.82 200.3s-7.31-99.92-34.86-237.13" fill="#a54847"/><path d="M1550.25 3035.22c-26.16 12.83-52.4 27.39-76.59 43.62l11.7 27.3 9.11 21.26 19.52 45.55 20.42 47.65h0c11.76-9.63 29.24-23 50.96-36.83-9.26-46.1-20.8-96.41-35.12-148.55" fill="#2e2e39"/><path d="M2327.5 2469.06l93.85-465.28.08 216.92-93.93 248.36" fill="#19181c"/><path d="M2114.74 3091.41c-.04-.23-187.44-580.18-187.48-1091.71 0-36.83.97-73.3 3.06-109.18l8.76.51c-2.08 35.7-3.04 72-3.04 108.67-.01 254.74 46.74 527.09 93.52 735.67 23.39 104.29 46.78 192.65 64.32 254.92l21.19 72.58 8.02 25.84-8.35 2.7" class="F"/><path d="M2070.08 3016.48l33.62-20.53c4.85-2.96-60.87-88.68-64.86-93.31-52.86-61.24-120.67-103.17-186.81-148.19-45.68-31.1-77.6-80.44-105.23-127.5-54.66-93.09-94.67-195.18-128.34-297.5-6.02-18.27-11.93-36.61-17.17-55.11l-104.88-18.48-16.09 149.92c25.02 65.52 59.3 128.68 96.83 187.73 33.48 52.67 71.43 102.99 115.83 146.99 53.74 53.26 113.55 83.75 181.05 116.48 74.91 36.33 151.97 86.28 196.05 159.5" class="E"/><path d="M2070.08 3053.27v-36.79l33.62-20.53 57.78 26.1-42.56 68.01-48.84-36.79" fill="#c9282a"/></g></g><g clip-path="url(#C)"><path d="M1935.92 569.242c-17.99 0-36.02 6.52-50.25 19.699 14.23-13.179 32.27-19.699 50.25-19.699a74.49 74.49 0 0 1 11.93.969 74.49 74.49 0 0 0-11.93-.969m53.28 22.637l1.03 1.09-1.03-1.09m-152.56 42.453l-795.66 736.628c-15.76 14.58-23.73 34.43-23.73 54.33.01 17.98 6.52 36 19.7 50.23l647.49 699.39c-22.1-310.42-83.15-598.26-83.15-598.26s94.32 66.71 153.01 173.48c-1.43-228.3 9.18-640.18 82.34-1115.798m615.83 457.918l-69.18 265.83h0l-52.09 200.4c64.5-60.54 113.79-71.03 113.79-71.03s-18.97 251.73-23.66 516.39l.02-.06.08 216.92 312-824.97-280.96-303.48m513.36 554.5l-333.52 973.41-.15.52c-39.48 140.38-128.68 288.06-128.68 288.06h0 0l-72.73 72.28 216.66 234.02c14.58 15.75 34.42 23.73 54.31 23.73 17.99 0 36.02-6.52 50.25-19.7l140.02-129.62c-3.88-2.68-7.53-5.83-10.86-9.43-24.59-26.55-22.99-68.01 3.57-92.6l467.99-433.27c12.61-11.67 28.57-17.44 44.5-17.44 17.62 0 35.18 7.06 48.1 21.01 3.33 3.6 6.18 7.48 8.56 11.55l142.81-132.21c15.76-14.59 23.73-34.44 23.73-54.34-.01-17.98-6.52-36-19.7-50.23l-634.86-685.74m305.84 724.91c-6.2 0-12.64-2.7-18.69-9.24-45.46-49.1-18.25-114.48-18.25-114.48s15.09-4.96 35.82-4.96c23.02 0 52.99 6.13 76.92 31.97 22.53 24.34-8.4 49.77-31.5 49.77-6.21 0-11.86-1.84-15.75-6.03 14.45 15.6-5.46 52.97-28.55 52.97m-167.54 30.6a15.88 15.88 0 0 1-11.68-5.1c-5.97-6.45-5.58-16.52.86-22.49a15.9 15.9 0 0 1 10.81-4.24c4.28 0 8.55 1.72 11.68 5.11 5.97 6.44 5.58 16.51-.87 22.48a15.81 15.81 0 0 1-10.8 4.24m-29.4 32.98l58.08-53.77 60.83 52.11-89.52 82.88-24.65 22.82-11.77-12.71 26.12-24.19-36.98-50.57 17.86-16.54a15.83 15.83 0 0 1-10.79 4.22 15.86 15.86 0 0 1-11.68-5.1 15.92 15.92 0 0 1 .87-22.49c3.06-2.83 6.94-4.23 10.8-4.23 4.28 0 8.55 1.71 11.68 5.1 5.97 6.44 5.59 16.5-.85 22.47m-502.4 465.28l-9.17-9.89 95.67-88.57 9.16 9.89-95.66 88.57m31.93 34.49l-9.17-9.89 95.67-88.57 9.16 9.89-95.66 88.57m31.93 34.49l-9.16-9.89 95.66-88.57 9.16 9.89-95.66 88.57" fill="url(#D)"/></g><g clip-path="url(#E)"><path d="M3397.19 2536.71c-15.93 0-31.89 5.77-44.5 17.44l-467.99 433.27c-26.56 24.59-28.16 66.05-3.57 92.6 3.33 3.6 6.98 6.75 10.86 9.43l40.25-37.27a28.89 28.89 0 0 1-12.44-7.92c-10.88-11.75-10.17-30.09 1.57-40.97 5.58-5.16 12.65-7.71 19.69-7.71 7.8 0 15.57 3.12 21.28 9.29 3.52 3.81 5.83 8.31 6.94 13.02l484.57-448.62c-2.38-4.07-5.23-7.95-8.56-11.55-12.92-13.95-30.48-21.01-48.1-21.01" fill="url(#F)"/></g><g clip-path="url(#G)"><path d="M2722.69 2871.04l-95.66 88.57 9.16 9.89 95.66-88.57-9.16-9.89" fill="url(#F)"/></g><g clip-path="url(#H)"><path d="M2690.76 2836.55l-95.67 88.57 9.17 9.89 95.66-88.57-9.16-9.89" fill="url(#F)"/></g><g clip-path="url(#I)"><path d="M2658.83 2802.06l-95.67 88.57 9.17 9.89 95.66-88.57-9.16-9.89" fill="url(#F)"/></g><g clip-path="url(#J)"><path d="M3270.55 2242.98c-20.73 0-35.82 4.96-35.82 4.96s-27.21 65.38 18.25 114.48c6.05 6.54 12.49 9.24 18.69 9.24 23.09 0 43-37.37 28.55-52.97 3.89 4.19 9.54 6.03 15.75 6.03 23.1 0 54.03-25.43 31.5-49.77-23.93-25.84-53.9-31.97-76.92-31.97" fill="url(#F)"/></g><g clip-path="url(#K)"><path d="M3132.81 2381.47l-58.08 53.77c0 .01-.01.01-.01.02-.01 0-.02.01-.02.01l-17.86 16.54 36.98 50.57 11.5-10.64 11.77 12.71-12.97 12.01h0l89.52-82.88-60.83-52.11" fill="url(#F)"/></g><g clip-path="url(#L)"><path d="M3104.12 2370.43a15.9 15.9 0 0 0-10.81 4.24c-6.44 5.97-6.83 16.04-.86 22.49a15.88 15.88 0 0 0 11.68 5.1 15.81 15.81 0 0 0 10.8-4.24c6.45-5.97 6.84-16.04.87-22.48-3.13-3.39-7.4-5.11-11.68-5.11" fill="url(#F)"/></g><g clip-path="url(#M)"><path d="M3063.9 2407.67c-3.86 0-7.74 1.4-10.8 4.23a15.92 15.92 0 0 0-.87 22.49 15.86 15.86 0 0 0 11.68 5.1 15.83 15.83 0 0 0 10.79-4.22s.01-.01.02-.01c0-.01.01-.01.01-.02 6.44-5.97 6.82-16.03.85-22.47-3.13-3.39-7.4-5.1-11.68-5.1" fill="url(#F)"/></g><g clip-path="url(#N)"><path d="M3105.32 2491.74l-11.5 10.64-26.12 24.19 11.77 12.71 24.65-22.82 12.97-12.01-11.77-12.71" fill="url(#F)"/></g><g clip-path="url(#O)"><path d="M2941.06 2995.58c-7.04 0-14.11 2.55-19.69 7.71-11.74 10.88-12.45 29.22-1.57 40.97a28.89 28.89 0 0 0 12.44 7.92l37.04-34.29c-1.11-4.71-3.42-9.21-6.94-13.02-5.71-6.17-13.48-9.29-21.28-9.29" fill="url(#P)"/></g><g clip-path="url(#Q)"><path d="M1935.92 569.242c-17.98 0-36.02 6.52-50.25 19.699h0l-49.03 45.391h0c-73.16 475.618-83.77 887.498-82.34 1115.798l.01.02c-.36-57.84.05-127.47 2.05-206.92 24.05 44.9 53.96 114.08 66 197.09 5.36 36.96 10.42 98.21 15 169.37 18.41-5.19 40.16-10.24 65.28-14.38 4.83-130.93 17.17-320.62 48.56-372.76l39.1-15.21h0s74.45-411.73 172.05-728.461l-172.12-185.91h0l-1.03-1.09h0c-11.5-11.938-26.1-19.199-41.35-21.668h0a74.49 74.49 0 0 0-11.93-.969" fill="url(#R)"/></g><g clip-path="url(#S)"><path d="M1990.3 1507.34l-39.1 15.21c-31.39 52.14-43.73 241.83-48.56 372.76a709.41 709.41 0 0 1 27.63-3.99l.05-.8 4.38.26c17.22-2.04 35.75-3.63 55.6-4.58v-378.86" fill="url(#T)"/></g><g clip-path="url(#U)"><path d="M2162.35 778.879c-97.6 316.731-172.05 728.461-172.05 728.461h0v378.86c13.66-.65 27.96-1.01 42.88-1.01 15.43 0 31.54.38 48.33 1.21 24.07-235.6 106.92-441.74 301.78-528.32l69.18-265.83h0l-290.12-313.371" fill="url(#F)"/></g><g clip-path="url(#V)"><path d="M2033.18 1885.19c-14.92 0-29.22.36-42.88 1.01-19.85.95-38.38 2.54-55.6 4.58l4.38.25c-2.08 35.7-3.04 72-3.04 108.67-.01 165.74 19.79 338.95 46.5 497.19l167.85 181.3c-46.7-212.1-96.51-521.37-68.88-791.79-16.79-.83-32.9-1.21-48.33-1.21m-102.91 6.13a709.41 709.41 0 0 0-27.63 3.99c-25.12 4.14-46.87 9.19-65.28 14.38 9.83 152.71 17.44 351.09 21.02 453.09l113.3 122.38c-25.65-154.99-44.41-323.64-44.42-485.46 0-36.55.96-72.76 3.01-108.38" fill="url(#W)"/></g><g clip-path="url(#X)"><path d="M1756.36 1543.23c-2 79.45-2.41 149.08-2.05 206.92 22.36 40.67 39.54 87.14 44.38 137.95 6.66 168.38 24.14 322.82 47.45 461.47l12.24 13.21-21.02-453.09c-4.58-71.16-9.64-132.41-15-169.37-12.04-83.01-41.95-152.19-66-197.09" fill="url(#Y)"/></g><g clip-path="url(#Z)"><path d="M1601.29 1576.65s61.05 287.84 83.15 598.26l161.7 174.66c-23.31-138.65-40.79-293.09-47.45-461.47-4.84-50.81-22.02-97.28-44.38-137.95l-.01-.02c-58.69-106.77-153.01-173.48-153.01-173.48" fill="url(#T)"/></g><g clip-path="url(#a)"><path d="M2383.29 1358.08h0l-52.09 200.4h0l52.09-200.4" fill="url(#Y)"/></g><g clip-path="url(#b)"><path d="M2383.29 1358.08c-194.86 86.58-277.71 292.72-301.78 528.32 21.66 1.06 44.45 2.87 68.39 5.55 10.54-46.85 24.18-91.34 41.4-132.52 46.63-97.38 96.68-160.4 139.9-200.95l52.09-200.4" fill="url(#c)"/></g><g clip-path="url(#d)"><path d="M2081.51 1886.4c-27.63 270.42 22.18 579.69 68.88 791.79l17.57 18.98c-43.58-250.01-73.13-560.33-18.06-805.22-23.94-2.68-46.73-4.49-68.39-5.55" fill="url(#e)"/></g><g clip-path="url(#f)"><path d="M2444.99 1487.45s-49.29 10.49-113.79 71.03h0c-43.22 40.55-93.27 103.57-139.9 200.95-17.22 41.18-30.86 85.67-41.4 132.52-55.07 244.89-25.52 555.21 18.06 805.22l.04.04c-40.73-233.71-69.18-520.15-27.73-756.57v.01c3.81 223.61 151.92 754.61 151.92 754.61l-53.65 78.15 21.05 22.74h42.56l8.14 54.76 78.96 85.29c11.88-23.98 23.95-49.65 35.81-76.75-121.62-121.31-101.81-379.14-101.81-379.14l59.87-158.31-55.62 147.06 93.83-465.22c4.69-264.66 23.66-516.39 23.66-516.39m58.49 1421.29h0l-72.73 72.28h0l72.73-72.28" fill="url(#T)"/></g><g clip-path="url(#g)"><path d="M2733.43 1395.73h0l-312 824.97h0l-38.31 101.3-59.87 158.31s-19.81 257.83 101.81 379.14c29.13-66.53 57.1-141.72 78.42-222.04 73.1-275.31 113-910.78 442.51-1012.09l-212.56-229.59m-101.12 1224.43l-.15.52c-39.45 140.27-128.55 287.84-128.68 288.06h0 0s89.2-147.68 128.68-288.06l.15-.52" fill="url(#h)"/></g><g clip-path="url(#i)"><path d="M2140.27 1940.64c-41.45 236.42-13 522.86 27.73 756.57l70.54 76.2 53.65-78.15s-148.11-531-151.92-754.61v-.01m161.88 855.51h-42.56l50.7 54.76-8.14-54.76" fill="url(#F)"/></g><g clip-path="url(#j)"><path d="M2965.83 1646.75l-333.52 973.41c35.67-126.38 280.26-822.2 333.52-973.41h0" fill="url(#k)"/></g><g clip-path="url(#l)"><path d="M2425.06 2859.45c-11.86 27.1-23.93 52.77-35.81 76.75l41.5 44.82 72.73-72.28h0c-31.12-10.74-56.97-27.9-78.42-49.29" fill="url(#m)"/></g><g clip-path="url(#n)"><path d="M2945.99 1625.32c-329.51 101.31-369.41 736.78-442.51 1012.09-21.32 80.32-49.29 155.51-78.42 222.04 21.45 21.39 47.3 38.55 78.42 49.29.13-.22 89.23-147.79 128.68-288.06l.15-.52c35.67-126.38 280.26-822.2 333.52-973.41h0l-19.84-21.43" fill="url(#o)"/></g><g clip-path="url(#p)"><path d="M2421.35 2003.78l-.02.06-93.83 465.22 55.62-147.06 38.31-101.3-.08-216.92" fill="url(#Y)"/></g><g clip-path="url(#q)"><path d="M1930.32 1890.52l-.05.8c-2.05 35.62-3.01 71.83-3.01 108.38.01 161.82 18.77 330.47 44.42 485.46l10.86 11.73c-26.71-158.24-46.51-331.45-46.5-497.19 0-36.67.96-72.97 3.04-108.67l-4.38-.25-4.38-.26" fill="url(#T)"/></g><path d="M3567.76 37.172C3567.76 16.641 2965.14 0 2221.78 0S875.801 16.641 875.801 37.172c0 20.52 602.619 37.16 1345.979 37.16s1345.98-16.641 1345.98-37.16" fill="#25252d"/><path d="M927.363 4136.74h-68.687l-29.403-26.6c-57.543-33.73-96.21-96.18-96.21-167.7 0-71.51 38.667-133.97 96.21-167.7l29.403-26.6h68.687c107.307 0 194.307 86.99 194.307 194.3s-87 194.3-194.307 194.3" class="D"/><path d="M1052.98 3942.44c0-107.31-86.996-194.3-194.304-194.3s-194.301 86.99-194.301 194.3 86.988 194.3 194.301 194.3 194.304-86.99 194.304-194.3" class="I"/><path d="M858.621 4003.69c-37.609 43.5-126.726 55.19-126.547-24.06s126.961-159.01 126.961-159.01 126.418 80.33 126.238 159.58-89.242 67.16-126.652 23.49" class="E"/><path d="M2798.16 755.879h-67.46l-28.88-26.117c-56.52-33.133-94.49-94.473-94.49-164.711s37.97-131.582 94.49-164.711l28.88-26.121h67.46c105.39 0 190.83 85.441 190.83 190.832s-85.44 190.828-190.83 190.828" class="D"/><path d="M2921.53 565.051c0-105.403-85.44-190.832-190.83-190.832-105.4 0-190.84 85.429-190.84 190.832 0 105.39 85.44 190.828 190.84 190.828 105.39 0 190.83-85.438 190.83-190.828" class="I"/><path d="M2730.64 625.199c-36.94 42.731-124.46 54.199-124.29-23.629.18-77.828 124.7-156.172 124.7-156.172s124.16 78.903 123.99 156.731c-.18 77.84-87.65 65.961-124.4 23.07" class="E"/><path d="M3759.51 3850.73H2696.88a20.75 20.75 0 0 0-20.74 20.74v242.23c0 11.46 9.29 20.74 20.74 20.74h1062.63c11.45 0 20.74-9.28 20.74-20.74v-242.23a20.75 20.75 0 0 0-20.74-20.74" class="G"/><path d="M3681.61 3850.73H2618.98c-11.46 0-20.74 9.29-20.74 20.74v242.23c0 11.46 9.28 20.74 20.74 20.74h1062.63c11.45 0 20.73-9.28 20.73-20.74v-242.23c0-11.45-9.28-20.74-20.73-20.74" class="E"/><path d="M3662 3870.41H2638.74c-11.85 0-21.47 9.61-21.47 21.47v201.42c0 11.85 9.62 21.47 21.47 21.47H3662c11.85 0 21.47-9.62 21.47-21.47v-201.42c0-11.86-9.62-21.47-21.47-21.47" class="C"/><path d="M2762.81 4077.07h11.5l2.63-10.48-14.13-4.25v14.73" class="J"/><path d="M2780.41 4073.28l20.7-41.94 46.29-6.73c5.57-.81 7.8-7.66 3.76-11.59l-33.49-32.66 7.91-46.1c.95-5.55-4.88-9.78-9.87-7.16l-41.4 21.76-41.4-21.76c-4.99-2.62-10.82 1.61-9.86 7.16l7.9 46.1-33.49 32.66c-4.04 3.93-1.81 10.78 3.77 11.59l46.28 6.73 20.71 41.94c2.49 5.05 9.69 5.05 12.19 0" class="D"/><use xlink:href="#r" class="F"/><use xlink:href="#s" class="K"/><path d="M2956.05 4077.07h11.49l2.63-10.48-14.12-4.25v14.73" class="J"/><use xlink:href="#r" x="204.73" class="D"/><use xlink:href="#t" class="F"/><path d="M2940.52 4026.45a3.93 3.93 0 0 0-1.81.44c-2 1-2.8 3.43-1.8 5.43l14.22 28.32c.71 1.41 2.14 2.23 3.62 2.23.61 0 1.23-.14 1.81-.43 2-1 2.8-3.44 1.8-5.43l-14.22-28.33c-.71-1.41-2.14-2.23-3.62-2.23" class="K"/><path d="M3149.28 4077.07h11.5l2.62-10.48-14.12-4.25v14.73" class="J"/><use xlink:href="#t" x="204.73" class="D"/><use xlink:href="#u" class="F"/><path d="M3133.76 4026.45c-.62 0-1.23.14-1.82.44-1.99 1-2.8 3.43-1.8 5.43l14.22 28.32c.71 1.41 2.14 2.23 3.62 2.23.61 0 1.23-.14 1.81-.43 2-1 2.81-3.44 1.8-5.43l-14.22-28.33a4.04 4.04 0 0 0-3.61-2.23" class="K"/><path d="M3342.52 4077.07h11.49l2.63-10.48-14.12-4.25v14.73" class="J"/><use xlink:href="#u" x="204.73" class="D"/><path d="M3348.61 4073.28l20.7-41.94 46.29-6.73c5.58-.81 7.8-7.66 3.77-11.59l-33.5-32.66 7.91-46.1c.95-5.55-4.88-9.78-9.86-7.16l-41.4 21.76-41.41-21.76c-4.98-2.62-10.81 1.61-9.86 7.16l7.91 46.1-33.5 32.66c-4.03 3.93-1.81 10.78 3.77 11.59l46.29 6.73 20.7 41.94c2.49 5.05 9.7 5.05 12.19 0" class="F"/><use xlink:href="#s" x="579.7" class="K"/><path d="M3547.25 4077.07h-11.5l-2.62-10.48 14.12-4.25v14.73" class="J"/><path d="M3529.65 4073.28l-20.7-41.94-46.29-6.73c-5.57-.81-7.8-7.66-3.76-11.59l33.49-32.65-7.91-46.11c-.95-5.55 4.88-9.78 9.87-7.16l41.4 21.76 41.4-21.76c4.99-2.62 10.82 1.61 9.86 7.16l-7.9 46.11 33.49 32.65c4.04 3.93 1.81 10.78-3.76 11.59l-46.29 6.73-20.7 41.94c-2.5 5.05-9.7 5.05-12.2 0" fill="#171619"/><path d="M3541.15 4073.28l-20.7-41.94-46.29-6.73c-5.58-.81-7.8-7.66-3.77-11.59l33.5-32.65-7.91-46.11c-.95-5.55 4.88-9.78 9.86-7.16l41.41 21.76 41.4-21.76c4.99-2.62 10.81 1.61 9.86 7.16l-7.91 46.11 33.5 32.65c4.03 3.93 1.81 10.78-3.77 11.59l-46.29 6.73-20.7 41.94c-2.49 5.05-9.7 5.05-12.19 0" class="D"/><g class="G"><path d="M3126.51 3736.14h-51.04L3141 3838.9l25.05-8.74-39.54-94.02"/><path d="M3228.58 3856.04l-102.07-119.9 23.16 119.9z"/></g><path d="M3177.54 3856.04l-102.07-119.9 23.16 119.9z" class="E"/><path d="M847.035 2958.67H318.281c-54.172 0-98.09 43.91-98.09 98.09v366.72c0 54.18 43.918 98.09 98.09 98.09h528.754c54.176 0 98.09-43.91 98.09-98.09v-366.72c0-54.18-43.914-98.09-98.09-98.09" class="G"/><path d="M745.199 2958.67h-528.75c-54.176 0-98.09 43.91-98.09 98.09v366.72c0 54.18 43.914 98.09 98.09 98.09h528.75c54.176 0 98.094-43.91 98.094-98.09v-366.72c0-54.18-43.918-98.09-98.094-98.09" class="E"/><path d="M736.012 3013.03h-518.5c-22.149 0-40.106 17.96-40.106 40.11v375c0 22.16 17.957 40.11 40.106 40.11h518.5c22.148 0 40.101-17.95 40.101-40.11v-375c0-22.15-17.953-40.11-40.101-40.11" class="H"/><path d="M205.887 3053.14v375c0 22.16 17.957 40.11 40.105 40.11h-28.48c-22.149 0-40.106-17.95-40.106-40.11v-375c0-22.15 17.957-40.11 40.106-40.11h28.48c-22.148 0-40.105 17.96-40.105 40.11" class="G"/><g class="C"><path d="M378.09 3279.24s82.59 2.71 93.422 52.8c10.832 50.1-4.063 67.7 0 82.59 4.062 14.9 60.929 9.48 63.636-39.26s-6.769-77.17-6.769-77.17h73.855c20.379 0 35.481-19.45 29.864-39.04-2.493-8.68-7.578-17.48-17.067-24.84 18.953-37.67 18.953-49.86 1.356-68.81 8.121-28.44 5.414-65.75-51.453-65.75H378.09v179.48"/><path d="M392.984 3113.84c0-13.34-10.816-24.16-24.156-24.16s-24.148 10.82-24.148 24.16v167.74c0 13.33 10.812 24.15 24.148 24.15s24.156-10.82 24.156-24.15v-167.74"/></g><path d="M566.535 3233.92a10.87 10.87 0 0 0-10.871-10.87h-96.277a10.87 10.87 0 0 0-10.871 10.87c0 6 4.867 10.87 10.871 10.87h96.277c6.004 0 10.871-4.87 10.871-10.87m0-66.21c0-6-4.867-10.87-10.871-10.87h-96.277c-6.004 0-10.871 4.87-10.871 10.87s4.867 10.87 10.871 10.87h96.277c6.004 0 10.871-4.87 10.871-10.87" class="H"/><path d="M537.836 2985.25v-195.36l-144.852 195.36z" class="E"/><path d="M613.922 2958.67h-76.086v-168.78h76.086v168.78" class="G"/><path d="M3270.2 629.93h528.75c54.18 0 98.1 43.91 98.1 98.09v366.72c0 54.18-43.92 98.1-98.1 98.1H3270.2c-54.17 0-98.09-43.92-98.09-98.1V728.02c0-54.18 43.92-98.09 98.09-98.09" class="H"/><path d="M3372.04 629.93h528.75c54.17 0 98.09 43.91 98.09 98.09v366.72c0 54.18-43.92 98.1-98.09 98.1h-528.75c-54.18 0-98.1-43.92-98.1-98.1V728.02c0-54.18 43.92-98.09 98.1-98.09" class="E"/><path d="M3381.23 684.289h518.49c22.15 0 40.11 17.961 40.11 40.109v375.012c0 22.15-17.96 40.1-40.11 40.1h-518.49c-22.15 0-40.11-17.95-40.11-40.1V724.398c0-22.148 17.96-40.109 40.11-40.109" class="H"/><path d="M3911.35 724.398v375.012c0 22.15-17.96 40.1-40.1 40.1h28.48c22.14 0 40.1-17.95 40.1-40.1V724.398c0-22.148-17.96-40.109-40.1-40.109h-28.48c22.14 0 40.1 17.961 40.1 40.109" class="G"/><g class="C"><path d="M3517.37 874.469s82.59-2.707 93.42-52.797c10.83-50.102-4.06-67.703 0-82.59 4.06-14.902 60.93-9.48 63.64 39.258 2.7 48.742-6.77 77.18-6.77 77.18h73.85c20.38 0 35.48 19.441 29.87 39.031-2.49 8.679-7.58 17.48-17.07 24.84 18.95 37.668 18.95 49.859 1.35 68.808 8.13 28.441 5.42 65.751-51.45 65.751h-186.84V874.469"/><path d="M3532.26 1039.87c0 13.34-10.81 24.16-24.15 24.16s-24.15-10.82-24.15-24.16V872.129a24.15 24.15 0 1 1 48.3 0v167.741"/></g><path d="M3705.81 919.789c0 6.012-4.86 10.871-10.87 10.871h-96.28a10.87 10.87 0 0 1-10.87-10.871c0-6 4.87-10.867 10.87-10.867h96.28a10.87 10.87 0 0 1 10.87 10.867m0 66.211a10.87 10.87 0 0 1-10.87 10.871h-96.28A10.88 10.88 0 0 1 3587.79 986c0-6.008 4.87-10.871 10.87-10.871h96.28c6.01 0 10.87 4.863 10.87 10.871" class="H"/><path d="M3579.4 656.512v-195.36l144.85 195.36z" class="E"/><path d="M3503.32 629.93h76.08V461.152h-76.08V629.93" class="H"/><path d="M933.457 2634.7h-65.66l-28.106-25.43c-55.003-32.24-91.964-91.94-91.964-160.3 0-68.37 36.961-128.07 91.964-160.31l28.106-25.42h65.66c102.573 0 185.733 83.15 185.733 185.73 0 102.57-83.16 185.73-185.733 185.73" class="D"/><path d="M1053.53 2448.97c0-102.58-83.159-185.73-185.733-185.73s-185.731 83.15-185.731 185.73c0 102.57 83.153 185.73 185.731 185.73s185.733-83.16 185.733-185.73" class="I"/><path d="M867.852 2327.08c-3.895 0-7.793-.02-11.688.01-3.5.03-5.23 1.75-5.246 5.28l.02 22.63c.011 1.44-.465 1.99-1.825 2.42-22.218 6.97-36.98 25.31-39.218 48.62l-.204 1.66c-.277 3.27 1.719 5.79 5.016 5.84h23.93c2.758-.03 4.383-1.85 5-4.82.476-2.29.875-4.68 1.871-6.75 4.109-8.51 11.301-12.63 20.476-13.5 4.204-.4 8.371.01 12.473 1.21 14.648 4.27 18.313 23.28 7.941 33.73-5.484 5.52-12.097 9.15-19.242 11.9-7.836 3.01-15.863 5.56-23.586 8.83-9.902 4.2-18.718 10.08-25.226 18.9-7.465 10.12-10.141 21.66-8.492 33.88 3.148 23.35 16.914 37.85 39.117 44.73 1.515.47 1.992 1.07 1.972 2.63l-.035 20.78c.004 3.99 1.641 5.67 5.594 5.68h22.816c3.715-.01 5.407-1.74 5.414-5.49l-.019-23.37c-.012-1.38.434-1.99 1.727-2.55 18.484-8 29.042-22.14 32.226-41.92.168-1.04.32-2.08.367-3.13.137-3.13-1.82-5.46-4.961-5.49-8.097-.1-16.203-.09-24.3.01-3.024.04-4.547 1.72-5.211 5.23-1.11 5.88-4.137 10.38-9.446 13.25-8.754 4.74-20.914 2.94-27.453-4.01-5.789-6.16-7.332-17.4 2.305-24.03 5.734-3.94 12.152-6.31 18.656-8.49 10.766-3.6 21.203-7.87 30.676-14.23 11.551-7.76 20.937-17.47 24.543-31.25 5.656-21.62 1.402-40.95-15.219-56.68-6.262-5.93-13.883-9.63-22.207-11.81-1.375-.36-1.703-.95-1.695-2.27l.027-21.15c-.004-4.81-1.398-6.24-6.133-6.26-3.586-.02-7.175 0-10.761 0v-.02" class="B"/><path d="M682.102 2445.16v.03-.03m-.004.33v.05-.05m-.008.34v.05-.05m-.004.35v.03-.03m-.012 1.03l-.004.1.004-.1m-.004.33v.11-.11m-.004.32v.13-.13m0 .33v.13-.13m0 .35v.1-.1m.52 14.42c7.152 96.04 87.34 171.74 185.211 171.74-97.871 0-178.059-75.7-185.211-171.74" fill="#ececf0"/><path d="M868.605 2634.7h-.039.039m-.359 0h-.086.086" class="M"/><path d="M752.652 2303.29c-42.054 33.29-69.39 84.35-70.55 141.87v.03l-.004.3v.05l-.008.29v.05l-.004.3v.03l-.012.68v.32c-.004.04-.004.06-.004.1v.23.11c0 .07-.004.14-.004.21v.13.2.13.22.1.33h0c0 4.71.172 9.37.52 13.99 7.152 96.04 87.34 171.74 185.211 171.74h0 .363.086.32.039c16.75-.08 32.954-2.41 48.375-6.63l-32.246-63.74-.004.92c-.007 3.75-1.699 5.48-5.414 5.49l-11.41.02c-3.801 0-7.605-.01-11.406-.02-3.953-.01-5.59-1.69-5.594-5.68l.035-20.78c.02-1.56-.457-2.16-1.972-2.63-22.203-6.88-35.969-21.38-39.117-44.73-1.649-12.22 1.027-23.76 8.492-33.88 2.906-3.94 6.273-7.29 9.992-10.17l-75.684-149.58m91.985 181.8c-3.239 6.21-1.282 13.6 3.023 18.18 2.383 2.53 5.512 4.38 8.949 5.48l-11.972-23.66" class="N"/><path d="M828.336 2452.87c-3.719 2.88-7.086 6.23-9.992 10.17-7.465 10.12-10.141 21.66-8.492 33.88 3.148 23.35 16.914 37.85 39.117 44.73 1.515.47 1.992 1.07 1.972 2.63l-.035 20.78c.004 3.99 1.641 5.67 5.594 5.68l11.406.02 11.41-.02c3.715-.01 5.407-1.74 5.414-5.49l.004-.92-28.125-55.58c-3.437-1.1-6.566-2.95-8.949-5.48-4.305-4.58-6.262-11.97-3.023-18.18l-16.301-32.22" class="O"/><path d="M1022.17 2448.92h-3.01c0-41.81-16.94-79.63-44.336-107.03s-65.222-44.34-107.027-44.34-79.629 16.94-107.031 44.34c-27.395 27.4-44.332 65.22-44.332 107.03 0 41.8 16.937 79.62 44.332 107.02 27.402 27.4 65.222 44.34 107.031 44.34s79.629-16.94 107.027-44.34 44.336-65.22 44.336-107.02h3.01 3c0 86.91-70.455 157.37-157.373 157.37s-157.379-70.46-157.379-157.37c0-86.92 70.461-157.38 157.379-157.38s157.373 70.46 157.373 157.38h-3" class="B"/><path d="M908.863 814.332h-95.05l-40.684-36.801c-79.625-46.679-133.133-133.101-133.133-232.062 0-98.969 53.508-185.387 133.133-232.071l40.684-36.796h95.05c148.497 0 268.867 120.367 268.867 268.867 0 148.492-120.37 268.863-268.867 268.863" class="D"/><path d="M1082.68 545.469c0-148.5-120.371-268.867-268.867-268.867S544.945 396.969 544.945 545.469c0 148.492 120.375 268.863 268.868 268.863s268.867-120.371 268.867-268.863" class="I"/><path d="M813.895 369.031c-5.637 0-11.278-.039-16.918.008-5.067.043-7.575 2.531-7.598 7.633l.031 32.769c.02 2.079-.672 2.868-2.64 3.489-32.165 10.09-53.536 36.652-56.778 70.402l-.293 2.398c-.402 4.731 2.489 8.379 7.262 8.45h34.644c3.993-.039 6.344-2.68 7.239-6.981.683-3.308 1.261-6.769 2.707-9.758 5.949-12.332 16.359-18.293 29.64-19.55 6.086-.59 12.122.019 18.055 1.75 21.203 6.179 26.512 33.699 11.5 48.82-7.941 8-17.516 13.25-27.859 17.23-11.34 4.368-22.961 8.051-34.141 12.789-14.34 6.071-27.098 14.59-36.519 27.36-10.809 14.652-14.68 31.359-12.293 49.039 4.558 33.801 24.484 54.801 56.625 64.75 2.195.68 2.882 1.562 2.855 3.812l-.051 30.079c.008 5.781 2.379 8.222 8.098 8.23h33.031c5.375-.02 7.824-2.52 7.836-7.949l-.031-33.832c-.016-2 .633-2.887 2.504-3.699 26.758-11.579 42.043-32.04 46.652-60.68.242-1.5.465-3.008.527-4.52.2-4.539-2.628-7.91-7.175-7.961-11.727-.14-23.453-.129-35.18.02-4.379.051-6.582 2.5-7.543 7.582-1.609 8.5-5.992 15.019-13.676 19.18-12.672 6.859-30.273 4.25-39.742-5.821-8.379-8.91-10.613-25.191 3.336-34.781 8.301-5.707 17.594-9.129 27.012-12.289 15.578-5.211 30.691-11.398 44.402-20.598 16.723-11.242 30.313-25.3 35.531-45.242 8.192-31.289 2.032-59.281-22.031-82.058-9.062-8.571-20.098-13.93-32.148-17.082-1.989-.52-2.469-1.379-2.453-3.29l.039-30.621c-.004-6.968-2.024-9.027-8.879-9.058l-15.578-.012v-.008" class="B"/><path d="M545 539.949v.043-.043m-.008.481c-.004.019-.004.05-.004.082l.004-.082m-.008.48c-.004.031-.004.059-.004.09l.004-.09m-.007.512c-.004.019-.004.039-.004.058 0-.019 0-.039.004-.058m-.016 1.039v.039-.039m-.004.461l-.004.148.004-.148m-.004.469l-.004.179.004-.179m-.004.468v.192-.192m-.004.481v.191-.191m0 .5v.16-.16m.442 16.18c1.765 30.929 8.758 60.472 20.113 87.73h0c-11.355-27.258-18.348-56.801-20.113-87.73" class="C"/><path d="M565.5 648.75h0c40.434 97.102 136.172 165.41 247.879 165.582-111.707-.172-207.441-68.48-247.879-165.582" fill="#ececf0"/><path d="M815.277 814.332h-.031.031m-.269 0h-.215.215m-.383 0h-.324.324m-.43 0h-.382.382" class="M"/><path d="M647.129 334.582C586.25 382.77 546.676 456.691 545 539.949v.043l-.008.438c-.004.031-.004.05-.004.082l-.004.398c-.004.031-.004.059-.004.09l-.003.422c-.004.019-.004.039-.004.058l-.012.981v.039l-.004.422c0 .058 0 .09-.004.148v.321c0 .058 0 .121-.004.179v.289.192l-.004.289v.191.309.16.469h0c0 5.222.149 10.402.442 15.551 1.765 30.929 8.758 60.472 20.113 87.73 40.438 97.102 136.172 165.41 247.879 165.582h.434 0 .382.106.324.168.215.238.031a268.74 268.74 0 0 0 69.739-9.602l-46.684-92.261-.004 1.332c-.012 5.429-2.461 7.929-7.836 7.949l-16.801.02a7314.04 7314.04 0 0 1-16.23-.02c-5.719-.008-8.09-2.449-8.098-8.23l.051-30.079c.027-2.25-.66-3.132-2.855-3.812-32.141-9.949-52.067-30.949-56.625-64.75-2.387-17.68 1.484-34.387 12.293-49.039 4.207-5.699 9.082-10.559 14.461-14.731L647.129 334.582m133.16 263.18c-4.687 8.988-1.855 19.687 4.375 26.308 3.449 3.672 7.981 6.352 12.957 7.942l-17.332-34.25" class="N"/><path d="M756.688 551.109c-5.379 4.172-10.254 9.032-14.461 14.731-10.809 14.652-14.68 31.359-12.293 49.039 4.558 33.801 24.484 54.801 56.625 64.75 2.195.68 2.882 1.562 2.855 3.812l-.051 30.079c.008 5.781 2.379 8.222 8.098 8.23l16.23.02 16.801-.02c5.375-.02 7.824-2.52 7.836-7.949l.004-1.332-40.711-80.457c-4.976-1.59-9.508-4.27-12.957-7.942-6.23-6.621-9.062-17.32-4.375-26.308l-23.601-46.653" class="O"/><path d="M1037.28 545.391h-4.35c0-60.52-24.52-115.27-64.176-154.942-39.668-39.66-94.418-64.168-154.941-64.168s-115.27 24.508-154.938 64.168c-39.656 39.672-64.176 94.422-64.176 154.942s24.52 115.269 64.176 154.941c39.668 39.66 94.418 64.168 154.938 64.18 60.523-.012 115.273-24.52 154.941-64.18 39.656-39.672 64.176-94.422 64.176-154.941h4.35 4.36c0 125.828-101.999 227.82-227.827 227.828-125.825-.008-227.821-102-227.825-227.828.004-125.821 102-227.821 227.825-227.821s227.827 102 227.827 227.821h-4.36" class="B"/><path d="M3970.83 2881.66h56.1l24.02-21.73c46.99-27.55 78.58-78.56 78.58-136.97 0-58.42-31.59-109.43-78.58-136.98l-24.02-21.72h-56.1c-87.65 0-158.7 71.05-158.7 158.7s71.05 158.7 158.7 158.7" class="D"/><path d="M3868.23 2722.96c0-87.65 71.05-158.7 158.7-158.7s158.7 71.05 158.7 158.7-71.05 158.7-158.7 158.7-158.7-71.05-158.7-158.7" class="I"/><path d="M4026.98 2618.81c-3.33 0-6.66-.02-9.99.01-2.99.03-4.47 1.5-4.48 4.51l.02 19.34c.01 1.23-.4 1.7-1.56 2.06-18.99 5.96-31.6 21.63-33.51 41.55l-.18 1.42c-.24 2.79 1.47 4.94 4.29 4.98 6.81.1 13.63.07 20.45.01 2.35-.03 3.74-1.59 4.27-4.12.41-1.96.75-4 1.6-5.77 3.51-7.27 9.66-10.79 17.49-11.54 3.6-.34 7.16.02 10.66 1.04 12.52 3.65 15.65 19.89 6.79 28.82-4.69 4.72-10.34 7.82-16.45 10.17-6.69 2.57-13.55 4.75-20.15 7.54-8.46 3.59-15.99 8.61-21.55 16.15-6.38 8.65-8.67 18.51-7.26 28.95 2.69 19.95 14.45 32.35 33.42 38.22 1.3.4 1.71.92 1.69 2.25l-.03 17.75c0 3.42 1.4 4.85 4.78 4.86h19.5c3.17-.01 4.62-1.49 4.62-4.69l-.02-19.97c-.01-1.18.38-1.7 1.48-2.18 15.79-6.84 24.82-18.92 27.54-35.82l.31-2.67c.12-2.68-1.55-4.67-4.24-4.7a897.9 897.9 0 0 0-20.76.01c-2.59.03-3.89 1.48-4.45 4.48-.95 5.02-3.54 8.86-8.08 11.32-7.48 4.05-17.87 2.51-23.45-3.43-4.95-5.27-6.27-14.87 1.96-20.53 4.9-3.37 10.39-5.4 15.95-7.26 9.19-3.08 18.12-6.73 26.21-12.16 9.87-6.63 17.89-14.93 20.97-26.7 4.83-18.47 1.2-34.99-13-48.43-5.35-5.07-11.87-8.23-18.98-10.09-1.17-.31-1.46-.82-1.45-1.94l.03-18.07c-.01-4.12-1.2-5.34-5.25-5.35l-9.19-.01v-.01" class="B"/><path d="M4185.6 2719.71h0m0 .28c0 .01.01.03.01.04 0-.02-.01-.03-.01-.04m.01.28v.05-.05m0 .3v.04-.04m.01.62h0m.01.27v.08-.08m0 .27v.11-.11m0 .28v.11-.11m0 .28v.11-.11m0 .29v.1-.1" class="C"/><path d="M4026.24 2881.66h.03-.03m.3 0h.08" class="M"/><path d="M4125.32 2598.48l-49.01 96.87c-.34 2.41-.84 4.87-1.49 7.36-2.11 8.07-6.54 14.5-12.3 19.89l-17.42 34.43a5.86 5.86 0 0 1 .61-.04l10.88-.06 9.88.05c2.69.03 4.36 2.02 4.24 4.7l-.31 2.67c-2.72 16.9-11.75 28.98-27.54 35.82-1.1.48-1.49 1-1.48 2.18l.02 19.97c0 3.2-1.45 4.68-4.62 4.69l-9.75.01c-3.25 0-6.5 0-9.75-.01-3.38-.01-4.78-1.44-4.78-4.86v-.69l-27.6 54.53a159.21 159.21 0 0 0 41.34 5.67h.03.27.08.31c87.65 0 158.7-71.05 158.7-158.7h0v-.28-.1-.18-.11-.17-.11-.17-.11-.19-.08c-.01-.09-.01-.18-.01-.27 0-.2 0-.39-.01-.58v-.04-.25-.05-.24c0-.01-.01-.03-.01-.04v-.27c-.99-49.16-24.35-92.79-60.28-121.24" class="N"/><path d="M4076.31 2695.35l-13.79 27.25c5.76-5.39 10.19-11.82 12.3-19.89.65-2.49 1.15-4.95 1.49-7.36m-19.72 61.58l-10.88.06a5.86 5.86 0 0 0-.61.04l-32.6 64.43v.69c0 3.42 1.4 4.85 4.78 4.86l9.75.01 9.75-.01c3.17-.01 4.62-1.49 4.62-4.69l-.02-19.97c-.01-1.18.38-1.7 1.48-2.18 15.79-6.84 24.82-18.92 27.54-35.82l.31-2.67c.12-2.68-1.55-4.67-4.24-4.7l-9.88-.05" class="O"/><path d="M3895.03 2722.91h-2.57c0-74.27 60.2-134.47 134.47-134.47s134.47 60.2 134.48 134.47c-.01 74.27-60.21 134.48-134.48 134.48s-134.47-60.21-134.47-134.48h2.57 2.57c0 35.73 14.47 68.04 37.88 91.46 23.41 23.41 55.73 37.88 91.45 37.88s68.04-14.47 91.45-37.88c23.41-23.42 37.88-55.73 37.88-91.46 0-35.72-14.47-68.04-37.88-91.45s-55.73-37.88-91.45-37.88-68.04 14.47-91.45 37.88-37.88 55.73-37.88 91.45h-2.57" class="B"/><path d="M3586.34 3593.04h100.15l42.86-38.78c83.9-49.18 140.28-140.24 140.28-244.51 0-104.28-56.38-195.34-140.28-244.52l-42.86-38.78h-100.15c-156.46 0-283.3 126.84-283.3 283.3 0 156.45 126.84 283.29 283.3 283.29" class="G"/><path d="M3403.19 3309.75c0-156.46 126.84-283.3 283.3-283.3s283.29 126.84 283.29 283.3c0 156.45-126.83 283.29-283.29 283.29s-283.3-126.84-283.3-283.29" class="E"/><path d="M3451.07 3310.68c0-131.13 106.3-237.43 237.43-237.43 131.12 0 237.42 106.3 237.42 237.43 0 131.12-106.3 237.42-237.42 237.42-131.13 0-237.43-106.3-237.43-237.42" class="H"/><path d="M3688.5 3548.1c-4.83 0-9.61-.19-14.37-.47 124.43-7.43 223.06-110.65 223.06-236.95s-98.63-229.53-223.06-236.96c4.76-.28 9.54-.47 14.37-.47 131.12 0 237.42 106.3 237.42 237.43 0 131.12-106.3 237.42-237.42 237.42" class="G"/><path d="M3753.63 3176.05v16.92h-149.9c-11.81.01-22.34 4.74-30.09 12.46-7.73 7.76-12.45 18.28-12.46 30.09v149.9c.01 11.8 4.73 22.33 12.46 30.08 7.75 7.73 18.28 12.46 30.09 12.46h149.9c11.8 0 22.33-4.73 30.08-12.46 7.73-7.75 12.45-18.28 12.46-30.08v-149.9c-.01-11.81-4.73-22.33-12.46-30.09-7.75-7.72-18.28-12.45-30.08-12.46v-16.92-16.91c42.19 0 76.37 34.19 76.38 76.38v149.9c-.01 42.19-34.19 76.37-76.38 76.38h-149.9c-42.2-.01-76.38-34.19-76.39-76.38v-149.9c.01-42.19 34.19-76.38 76.39-76.38h149.9v16.91m-18.41 132.62h-16.92c-.01-9.79-3.91-18.49-10.32-24.92-6.43-6.41-15.13-10.32-24.92-10.32-9.78 0-18.48 3.91-24.92 10.32-6.4 6.43-10.31 15.13-10.32 24.92.01 9.78 3.92 18.49 10.32 24.92 6.44 6.4 15.14 10.31 24.92 10.32 9.79-.01 18.49-3.92 24.92-10.32a35.04 35.04 0 0 0 10.32-24.92h16.92 16.92c-.01 38.15-30.92 69.06-69.08 69.07-38.15-.01-69.06-30.92-69.07-69.07.01-38.16 30.92-69.07 69.07-69.08 38.16.01 69.07 30.92 69.08 69.08h-16.92m35.51 75.03h-5.82a12.14 12.14 0 0 0-12.12-12.12 12.14 12.14 0 0 0-12.12 12.12c.01 6.69 5.43 12.1 12.12 12.12 6.69-.02 12.11-5.43 12.12-12.12h5.82 5.82c-.01 13.12-10.64 23.75-23.76 23.75s-23.75-10.63-23.76-23.75a23.78 23.78 0 0 1 23.76-23.76 23.78 23.78 0 0 1 23.76 23.76h-5.82" class="C"/><path d="M417.73 1659.63H308.625l-46.699-42.25C170.527 1563.8 109.105 1464.6 109.105 1351s61.422-212.8 152.821-266.37l46.699-42.25H417.73c170.45 0 308.629 138.17 308.629 308.62S588.18 1659.63 417.73 1659.63" class="G"/><path d="M617.25 1351c0-170.45-138.176-308.62-308.625-308.62S0 1180.55 0 1351s138.176 308.63 308.625 308.63S617.25 1521.45 617.25 1351" class="E"/><path d="M565.094 1352.02c0-142.86-115.805-258.66-258.656-258.66s-258.657 115.8-258.657 258.66c0 142.85 115.805 258.65 258.657 258.65s258.656-115.8 258.656-258.65" class="H"/><path d="M306.438 1610.67c5.257 0 10.468-.2 15.648-.51-135.559-8.1-243.004-120.55-243.004-258.14 0-137.6 107.445-250.05 243.004-258.15-5.18-.31-10.391-.51-15.648-.51-142.852 0-258.657 115.8-258.657 258.66 0 142.85 115.805 258.65 258.657 258.65" class="G"/><g class="C"><path d="M479.652 1470.37h0 0z"/><path d="M467.031 1437.62c-6.976-1.93-12.472-1.63-12.472-1.63l.226 1.33c6.492 5.2 22.875 21.15 25.039 28.61.942 3.23-.172 4.34-.179 4.44l-20.922-8.88-17.508-7.9c-12.082 12.79-30.379 20.95-50.828 20.95-36.399 0-65.91-25.79-65.91-57.6 0-5.82.867-16.44 2.695-21.73 0-1.67.066 1.67 0 0-23.438.64-53.477 10.26-80.231 23.81-52.769 26.74-56.074 45.24-56.074 45.24-8.289-8.8-12.562-37.94-4.164-60.79 5.383-14.62 23.867-27.75 23.867-27.75s-8.261-.16-16.925 2.77-11.934 5.83-11.934 5.83c-5.148-12.56 5.184-34.98 23.043-51.07 10.402-9.38 29.414-15.26 29.414-15.26l-29.699-.84c-1.668-28.87 60.539-46.01 60.539-46.01-18.235-14.02-39.391-22.56-62.063-22.56-11.754 0-23.109 1.75-33.89 4.97 29.961-24.68 68.461-41.72 110.328-39.52 111.066 5.83 173.765 101.31 176.75 195.07l.14-.19s5.207 2.59 16.332 13.72 18.043 24.15 18.043 24.15-16.632-7.23-23.617-9.16"/><path d="M479.652 1470.37c.078-1.77 0-.17 0 0"/></g><path d="M3789.7 1860.22h85.22l36.48-33c71.39-41.85 119.37-119.34 119.37-208.07s-47.98-166.22-119.37-208.07l-36.48-33h-85.22c-133.14 0-241.07 107.93-241.07 241.07s107.93 241.07 241.07 241.07" class="D"/><g class="F"><path d="M3633.85 1619.15c0-133.14 107.93-241.07 241.07-241.07s241.07 107.93 241.07 241.07-107.93 241.07-241.07 241.07-241.07-107.93-241.07-241.07"/><path d="M3674.59 1619.94c0-111.58 90.46-202.04 202.04-202.04s202.04 90.46 202.04 202.04-90.46 202.04-202.04 202.04-202.04-90.46-202.04-202.04"/></g><path d="M3876.63 1821.98c-4.11 0-8.18-.16-12.22-.4 105.88-6.33 189.81-94.16 189.81-201.64 0-107.47-83.93-195.31-189.81-201.63 4.04-.25 8.11-.41 12.22-.41 111.58 0 202.04 90.46 202.04 202.04s-90.46 202.04-202.04 202.04" class="D"/><path d="M3828.86 1663.65v-43.89h-51.4v-59.53h51.4v-136.41c15.34-3.72 31.28-5.92 47.77-5.92 4.63 0 9.15.39 13.7.7v141.63h51.27l7.68 59.53h-58.95v38.01c0 17.22 4.78 28.97 29.5 28.97l31.52.01v53.24c-5.46.73-24.16 2.35-45.94 2.35-45.44 0-76.55-27.75-76.55-78.69" class="C"/></g></svg>