<svg xmlns="http://www.w3.org/2000/svg" xmlns:xlink="http://www.w3.org/1999/xlink" width="3733.333" height="2666.667" xmlns:v="https://vecta.io/nano"><style><![CDATA[.B{fill:#f99370}.C{fill:#1d3f70}.D{fill:#eb5648}.E{fill:#e8c0a6}.F{fill:#c16256}.G{fill:#ce3932}.H{fill:#fff}.I{fill:#103663}.J{fill:#e57d61}.K{fill:#7689d6}.L{fill:#f49f9f}.M{fill:#163260}.N{fill:#8e4a35}.O{fill:#fcb4b4}.P{fill:#3a72aa}.Q{fill:#23659b}.R{fill:#677cc1}.S{fill:#8a9edd}]]></style><path d="M3733.324 2666.667H0V.007h3733.324v2666.66" class="H"/><path d="M159.394 2204.788s-23.992 73.546 75.4 91.96c135.949 25.187 904.6 92.76 710.738 143.04-109.436 28.387 85.213 65.533 618.25 79.733 533.025 14.187 1447.663-41.427 1140.077-123.706-307.573-82.28 945.584-19.867 869.251-191.026H159.394" fill="#cfddf9"/><path d="M760.355 2203.948s-386.404-987.851-96.678-1198.024c193.653-140.48 382.719 213.199 627.716 49.373 218.11-145.853 77.11-488.639 290.843-650.932 307.346-233.346 697.478 801.198 1003.984 645.558 482.145-244.813 776.905 141.386 442.092 1155.824l-2267.957-1.8" fill="#d4e8ff"/><path d="M1780.182 179.486c-19.253-9.4-39.307-15.827-59.613-19.107l2.893-14.747c22.04 3.56 43.76 10.52 64.573 20.68zm-180.6.013l-8.907-12.613c19.587-11.347 41.16-18.733 64.12-21.947l2.52 14.813c-20.68 2.88-40.093 9.52-57.733 19.747zm277.066 77.093c-14.44-16.4-29.347-30.933-44.307-43.187l11.093-11.107c15.613 12.787 31.133 27.92 46.147 44.947zm-357.119 11.44l-14.827-6.627c10.853-19.92 22.893-37.533 35.787-52.36l12.973 9.267c-12.173 14-23.587 30.733-33.933 49.72zm428.026 88.88c-10.88-18.547-21.987-35.96-33.013-51.747l13.96-8.013c11.253 16.12 22.573 33.853 33.653 52.747zm-471.345 23.32l-16.04-3.627c5.773-20.92 12.12-40.613 18.893-58.547l15.64 4.84c-6.613 17.547-12.84 36.827-18.493 57.333zm527.305 85.466c-8.88-19.347-17.827-37.867-26.613-55.04l15-6.293c8.867 17.347 17.92 36.053 26.88 55.587zm-552.145 32.44l-16.36-2.147c3.333-20.96 7.013-41.133 10.92-59.933l16.24 2.773c-3.853 18.587-7.493 38.547-10.8 59.307zm599.719 79.92l-23.013-56.44 15.44-5.347 23.133 56.733zm-614.758 39.76l-16.467-1.333 6.653-60.307 16.427 1.667-6.613 59.973zm1480.863 25.253c-20.48-7.827-41.2-12.667-61.6-14.387l1.533-14.907c22.093 1.867 44.453 7.08 66.493 15.493zm-180.373 18.347l-9.467-12.267c20.32-12.893 40.853-22.427 61.027-28.36l5.107 14.24c-18.613 5.48-37.68 14.36-56.667 26.387zm-642.412 30.773l-21.32-57.173 15.627-4.853 21.373 57.28zm927.624 18.653c-15.907-14.773-32.387-27.813-48.973-38.747l9.733-12.107c17.333 11.427 34.507 25.027 51.067 40.4zM764.649 735.058c-20.627-9.307-40.916-15.24-60.303-17.64l2.243-14.84c21.173 2.627 43.184 9.04 65.424 19.067zm662.054 3.133l-16.493-.893 4.347-60.427 16.48 1.067-4.333 60.253zm1216.89 5.88l-12.84-9.427c15.493-17.32 30.187-32.24 44.907-45.587l11.693 10.587c-14.307 12.973-28.627 27.507-43.76 44.427zm-2057.251 4.587l-10.025-11.907c19.74-13.64 40.285-23.48 61.064-29.24l4.837 14.32c-18.899 5.24-37.699 14.267-55.876 26.827zm2515.13 56.453c-11.84-17.507-24.267-34.067-36.92-49.227l13.187-9.027c12.973 15.533 25.707 32.507 37.827 50.427zm-2232.796.64c-16.895-14.907-33.508-28.067-49.376-39.12l10.08-11.88c16.375 11.413 33.475 24.973 50.828 40.267zm1268.118 1.053l-21.307-57.307 15.693-4.747 21.253 57.213zM501.473 837.271l-13.932-8.067c12.989-18.427 26.384-35.067 39.808-49.467l12.628 9.667c-12.952 13.88-25.907 29.987-38.504 47.867zm2064.814 4.227l-13.8-8.267c13.813-18.92 26.173-35.307 37.773-50.053l13.453 8.68c-11.48 14.613-23.733 30.853-37.427 49.64zm-1146.677 17.36l-16.52-.76 3.4-60.387 16.507.787-3.387 60.36zm-462.8 36.16c-14.999-16.867-28.96-31.88-42.683-45.907l12.367-9.933c13.896 14.2 28.024 29.387 43.189 46.44zm2204.702 16.333c-8.893-18.747-18.293-36.96-27.947-54.147l14.733-6.787c9.813 17.467 19.373 35.973 28.4 55.027zm-978.998 9.347c-7.493-17.013-15.227-35.573-23.653-56.747l15.547-5.08c8.373 21.013 16.04 39.427 23.467 56.28zm311.266 22.147l-13.813-8.227 36.173-50.64 13.907 8.093-36.267 50.773zm-2053.644 0l-15.123-6.04a907.48 907.48 0 0 1 29.02-54.787l14.657 6.933c-10.111 17.587-19.624 35.573-28.555 53.893zm972.127 36.867l-16.507-.96 3.907-60.293 16.507.8-3.907 60.453zm-374.974 11.133l-39.665-48.387 13.179-9.04 39.828 48.587zm2169.649 32.933c-6.653-19.4-13.76-38.507-21.12-56.773l15.533-5.133c7.453 18.493 14.64 37.827 21.373 57.453zm-965.411 6.627c-10.693-14.947-21.293-32.56-32.4-53.827l14.933-6.4c10.8 20.653 21.053 37.693 31.347 52.08zm172.066 10.293l-12.147-10.147c12.533-12.307 25.973-27.467 41.08-46.387l13.387 8.787c-15.493 19.4-29.333 35.013-42.32 47.747zm-2019.348 14.28l-15.808-4.373c6.568-19.467 13.773-38.813 21.419-57.52l15.501 5.2a975.06 975.06 0 0 0-21.112 56.693zm1931.829 32.267c-12.867 0-25.507-3.48-37.533-10.36l8.813-12.667c18.08 10.347 35.867 10.36 55.067 2.12l7.12 13.52c-11.36 4.907-22.613 7.387-33.467 7.387zm-1210.226 1.24l-39.383-48.827 13.381-8.787 39.287 48.693zm284.402 12.16l-16.387-1.907c2.533-17.88 4.813-37.453 6.947-59.84l16.48 1.293c-2.173 22.6-4.467 42.373-7.04 60.453zm1840.649 39.04c-4.893-19.787-10.173-39.387-15.693-58.28l15.987-3.84c5.573 19.08 10.893 38.88 15.84 58.84zM362.442 1171.19l-16.228-2.853c4.283-19.987 9.128-39.92 14.401-59.24l16.048 3.587a1090.38 1090.38 0 0 0-14.221 58.507zm836.915 12.28c-13.169-13.293-27.241-28.573-43.023-46.747l12.991-9.267c15.557 17.92 29.405 32.96 42.332 46zm168.466 36.427l-14.72-6.813c7.56-13.413 14.253-32.053 19.88-55.36l16.147 3.2c-6.013 24.907-12.987 44.2-21.307 58.973zm-57.353 35.627c-22.969-3.28-39.584-12.747-62.599-29.107l10.448-11.6c20.161 14.293 34.724 22.867 53.911 25.827zm1955.015 2.12c-3.44-19.987-7.213-39.893-11.227-59.173l16.253-2.773c4.04 19.427 7.84 39.493 11.307 59.64zm-2922.133 32.133l-16.448-1.493c2.247-20.253 4.983-40.493 8.137-60.16l16.359 2.147c-3.12 19.453-5.827 39.467-8.048 59.507zm2938.813 87.04c-2.2-20.107-4.707-40.2-7.427-59.693l16.4-1.88c2.747 19.627 5.253 39.853 7.48 60.093zm-2946.667 32.68l-16.528-.307c.461-20.333 1.348-40.693 2.639-60.52l16.503.88c-1.279 19.64-2.159 39.813-2.613 59.947zm2956.561 87.186l-4.147-59.987 16.48-1.12 4.173 60.333zm-2971.085 33.56c-1.097-20.267-1.824-40.627-2.161-60.493l16.528-.227c.335 19.693 1.056 39.88 2.143 59.987zm2974.991 86.626l-1.253-60.12 16.52-.44 1.267 60.427zm-2964.282 34.04c-2.464-20.16-4.609-40.427-6.375-60.253l16.476-1.213c1.753 19.68 3.883 39.8 6.329 59.813zm2979.415 86.68l-16.52-.44 1.32-60.133 16.533.16-1.333 60.413zm-2961.005 33.173l-10.115-59.813 16.372-2.067 10.047 59.413zm2954.818 87.533l-16.493-.947 3.64-60.08 16.52.693-3.667 60.333zm-2929.469 31.253l-13.503-59.253 16.229-2.84 13.419 58.88zm2918.949 89.173l-16.453-1.413 5.76-59.947 16.467 1.187-5.773 60.173zm-2887.166 28.32l-16.679-58.573 16.056-3.56 16.577 58.227zm2872.686 91.76l-16.413-1.84 7.693-59.787 16.427 1.64-7.707 59.987zm-2834.564 24.227a2145.06 2145.06 0 0 1-19.873-57.787l15.844-4.267 19.744 57.4-15.715 4.653" fill="#dce6ff"/><path d="M3394.632 1679.509c-137.173-23-124.76 322.559-320.293 322.559-178.773 0-274.439-772.038-470.625-615.012-788.691 631.265-175.04-442.959-705.358-463.946-239.799-9.493-399.586 279.653-458.519 791.611-85.413 462.826-283.502-353.012-487.357-277.159-129.561 48.213-114.722 564.505-293.499 564.505-195.533 0-182.652-290.573-319.827-267.573-147.692 24.747-182.302 475.279-182.302 475.279h3419.621s-34.147-505.505-181.84-530.265" fill="#eef7ff"/><path d="M3263.192 2070.615c-126.2-8.147-105.6 65.507-285.493 65.507-164.466 0-159.946-165.066-270.013-200.159-202.679-64.6-369.772 262.386-448.359 98.28-149.24-435.452-584.519-653.825-785.331 0-78.586 164.106-262.339-128.72-448.36-98.28-114.504 18.747-105.542 200.159-270.011 200.159-179.888 0-159.294-73.653-285.491-65.507-135.873 8.787-176.457 139.16-176.457 139.16h3145.968s-40.587-130.373-176.453-139.16" fill="#dce6ff"/><path d="M1038.031 916.231c-207.849 15.373-235.961-293.319-28.781-315.746 207.842-15.387 235.954 293.306 28.781 315.746zm266.054-162.573l-3.776-41.413-36.603 3.333c-5.135-29-15.313-56.067-29.533-80.346l29.995-21.16-23.977-33.987-30.024 21.187c-18.531-21.96-40.82-40.533-65.773-54.787l15.407-33.347-37.755-17.44-15.393 33.32a242.41 242.41 0 0 0-84.368-14.507l-3.337-36.613-41.415 3.787 3.337 36.6c-29.012 5.133-56.072 15.307-80.352 29.533l-21.165-30-33.98 23.987 21.187 30.013c-21.967 18.533-40.531 40.827-54.783 65.773l-33.36-15.4-17.437 37.747 33.327 15.4c-9.595 26.453-14.711 54.907-14.515 84.36l-36.603 3.347 3.776 41.413 36.603-3.333c5.135 29.013 15.312 56.067 29.533 80.346l-29.995 21.16 23.979 33.987 30.023-21.187a245.34 245.34 0 0 0 65.775 54.787l-15.408 33.36 37.755 17.427 15.393-33.32c26.451 9.6 54.905 14.707 84.368 14.52l3.337 36.6 41.415-3.773-3.337-36.613c29.012-5.133 56.072-15.307 80.352-29.533l21.167 30 33.979-23.973-21.187-30.027a245.36 245.36 0 0 0 54.783-65.773l33.36 15.4 17.437-37.747-33.328-15.4c9.596-26.453 14.712-54.907 14.517-84.36l36.601-3.347" class="K"/><path d="M2662.607 832.805c-125.08-17.107-99.933-206.813 24.973-191.226 125.08 17.107 99.946 206.813-24.973 191.226zm266.173 8.333l20.467-103.533-59.44-11.747c-1.027-19.4-4.68-38.307-10.68-56.307l50.867-34.067-58.733-87.68-48.947 32.787c-16.067-15.147-34.56-27.933-55.027-37.64l12.093-61.147-103.533-20.467-12.093 61.133a214.01 214.01 0 0 0-60.773 12.24l-30.853-46.053-87.68 58.733 30.853 46.053c-13.76 15.24-25.427 32.547-34.453 51.547l-59.44-11.747-20.467 103.533 59.44 11.747c1.2 22.627 5.973 44.587 13.88 65.213l-48.96 32.787 58.733 87.68 50.867-34.067c14.36 12.387 30.453 22.973 48 31.293l-12.093 61.147 103.533 20.467 12.093-61.133c21.013-1.12 41.453-5.32 60.773-12.24l35.96 53.68 87.68-58.733-35.947-53.68a214.15 214.15 0 0 0 34.44-51.547l59.44 11.747" class="L"/><path d="M2268.101 2180.841h-534.292v-331.253h534.292v331.253" fill="#255084"/><path d="M2268.101 2031.402h-534.292v-376.226h534.292v376.226m293.239 214.319H1440.57c-22.493 0-40.733-18.24-40.733-40.733h0c0-22.493 18.24-40.733 40.733-40.733h1120.77c22.493 0 40.733 18.24 40.733 40.733h0c0 22.493-18.24 40.733-40.733 40.733" class="C"/><path d="M969.294 1900.029V860.871c0-42.667 34.595-77.266 77.266-77.266h1908.793c42.667 0 77.266 34.6 77.266 77.266v1039.157c0 42.667-34.6 77.266-77.266 77.266H1046.56c-42.672 0-77.266-34.6-77.266-77.266" fill="#255084"/><path d="M2951.833 853.725v970.104H1050.089V853.725h1901.743" fill="#91a9d8"/><path d="M2044.195 1899.549c0 23.88-19.36 43.24-43.24 43.24s-43.24-19.36-43.24-43.24 19.36-43.24 43.24-43.24 43.24 19.36 43.24 43.24" class="C"/><path d="M2821.286 1132.857h0c-6.627-78.68-64.68-138.76-134.106-138.76H1314.738c-79.494 0-141.706 77.973-134.11 168.08h0c6.635 78.693 64.691 138.76 134.11 138.76H2687.18c79.493 0 141.706-77.96 134.106-168.08m-219.213 290.586h-767.131c-6.373 0-11.547-5.16-11.547-11.533 0-6.387 5.173-11.547 11.547-11.547h767.131c6.373 0 11.547 5.16 11.547 11.547 0 6.373-5.173 11.533-11.547 11.533m-875.597 0h-326.639a11.53 11.53 0 0 1-11.533-11.533c0-6.387 5.16-11.547 11.533-11.547h326.639c6.373 0 11.547 5.16 11.547 11.547 0 6.373-5.173 11.533-11.547 11.533m875.597 105.107h-429.426c-6.387 0-11.547-5.16-11.547-11.547 0-6.373 5.16-11.547 11.547-11.547h429.426c6.373 0 11.547 5.173 11.547 11.547 0 6.387-5.173 11.547-11.547 11.547m-483.718 0h-718.518c-6.373 0-11.533-5.16-11.533-11.547 0-6.373 5.16-11.547 11.533-11.547h718.518c6.373 0 11.547 5.173 11.547 11.547 0 6.387-5.173 11.547-11.547 11.547m483.718 105.106h-406.706c-6.373 0-11.547-5.173-11.547-11.547s5.173-11.547 11.547-11.547h406.706c6.373 0 11.547 5.173 11.547 11.547s-5.173 11.547-11.547 11.547m-464.678 0h-340.186c-6.373 0-11.533-5.173-11.533-11.547s5.16-11.547 11.533-11.547h340.186c6.373 0 11.547 5.173 11.547 11.547s-5.173 11.547-11.547 11.547m-422.706 0h-314.853c-6.373 0-11.533-5.173-11.533-11.547s5.16-11.547 11.533-11.547h314.853c6.373 0 11.533 5.173 11.533 11.547s-5.16 11.547-11.533 11.547m887.384 105.093H2385.54a11.53 11.53 0 0 1-11.533-11.533c0-6.387 5.16-11.547 11.533-11.547h216.533c6.373 0 11.547 5.16 11.547 11.547 0 6.373-5.173 11.533-11.547 11.533m-257.772 0h-343.346a11.53 11.53 0 0 1-11.533-11.533c0-6.387 5.16-11.547 11.533-11.547h343.346c6.373 0 11.547 5.16 11.547 11.547 0 6.373-5.173 11.533-11.547 11.533m-396.559 0h-547.905a11.53 11.53 0 0 1-11.533-11.533c0-6.387 5.16-11.547 11.533-11.547h547.905c6.373 0 11.547 5.16 11.547 11.547 0 6.373-5.173 11.533-11.547 11.533" fill="#b0c7f5"/><g class="H"><path d="M1448.543 1242.737l-64.907-34.04-64.841 34.173 12.319-72.253-52.532-51.107 72.521-10.613 32.373-65.747 32.493 65.693 72.533 10.467-52.427 51.2 12.467 72.226"/><use xlink:href="#B"/><use xlink:href="#B" x="308.706"/><use xlink:href="#B" x="617.412"/></g><use xlink:href="#B" x="926.118" fill="#91a9d8"/><g class="B"><path d="M730.281 1432.603s-31.019 9.907-29.327 42.893l24.747 5.12 4.58-48.013m85.725 231.32c35.005-6.867 70.628-14.08 103.917-26.867 10.476-3.72 19.847-8.2 25.347-18.973 11.653-20.747 15.103-47.867 16.968-72.04 1.504-8.907-2.925-25.267 10.476-25.507 8.12.187 9.388 8.947 11.132 15.04 2.28 8.453 4.033 16.933 5.4 25.613 13.799 96.613-27.215 123.493-112.208 150.546-16.859 5.053-33.96 9.36-51.372 12.053-39.163 5.32-48.5-52.613-9.66-59.867"/><path d="M950.304 1488.83s32.919-.587 31.011 38.227l-19.447 8.6-11.564-46.827m-28.268 880.091l-77.75 6.013c-6.805.253-7.291-6.667-6.453-12.12 2.787-19.653-8.211-63.453-11.149-83.213-.655-3.613 1.96-7 5.623-7.28l34.315-2.653a6.2 6.2 0 0 1 6.669 6.467l-2.4 50.187c-.837 22.933 23.569 23.4 39.268 25.227 6.271 1.067 12.887 2.96 16.237 7.32 3.113 3.88.612 9.667-4.359 10.053"/></g><path d="M835.219 2367.534c.504 3.787 2.729 7.987 7.139 7.547-.001 0 80.648-6.227 80.648-6.227 4.168-.32 6.801-4.72 5.02-8.493-3.811-8.56-15.944-20.8-54.219-20-5.431.947-17.763 3.787-36.016 2.733 0 0-5.444 10.2-2.572 24.44" class="C"/><path d="M902.936 2359.441a1.85 1.85 0 0 1-.655-.08 1.72 1.72 0 0 1-1.116-2.16c2.98-9.347 9.632-12.667 9.915-12.8.857-.413 1.88-.067 2.296.787s.063 1.88-.787 2.293h0c-.229.12-5.637 2.88-8.147 10.76a1.72 1.72 0 0 1-1.507 1.2m-13.439-.587a1.69 1.69 0 0 1-.513-.04c-.925-.2-1.505-1.12-1.296-2.053 2.373-10.44 10.713-15.72 11.067-15.933a1.714 1.714 0 1 1 1.817 2.907c-.076.053-7.487 4.787-9.531 13.787a1.71 1.71 0 0 1-1.544 1.333m-15.297-.681c-.188.013-.38-.013-.572-.053-.919-.24-1.464-1.187-1.223-2.107 2.793-10.587 10.449-16.64 10.775-16.893a1.73 1.73 0 0 1 2.409.307c.583.747.451 1.827-.295 2.4-.071.067-7.077 5.64-9.567 15.067a1.73 1.73 0 0 1-1.528 1.28" class="E"/><path d="M928.026 2360.361l-92.806 7.173c.56 2.8 1.555 5.493 3.168 7.853l84.618-6.533c4.111-.32 6.743-4.6 5.08-8.36-.02-.053-.04-.093-.06-.133" fill="#10325b"/><path d="M889.887 2305.694l-5.184 16.24s-33.66 13.773-64.813 1.52l.42-6.347.095-1.52.345-5.48c2.728-43.627 8.343-172.04 5.835-204.346-3.221-41.493-19.391-76.666-36.924-101.373-6.087-8.56-12.329-15.867-18.259-21.747-34.815-34.533-71.465-33.24-58.581-93.786 1.9-8.907 80.585-5 80.585-5l88.79 14.32s39.137 95.533 46.399 185.733c5.803 72.16-26.599 182.4-38.708 221.786" class="C"/><g class="I"><path d="M833.489 2317.108H820.31l.095-1.52.345-5.48c2.728-43.627 8.343-172.04 5.835-204.346-3.221-41.493-19.391-76.666-36.924-101.373l1.993-23.853s34.017 48.227 42.727 92.16c8.709 43.947-.892 244.413-.892 244.413"/><path d="M889.89 2305.694l-5.185 16.24s-33.664 13.773-64.82 1.52l.861-13.347.012-.013s36.1 10.533 69.132-4.4"/></g><path d="M502.444 2275.588l-32.793-70.76c-1.499-3.227.029-7.027 3.327-8.36 17.475-3.907 41.727-18.387 57.143-27.627 0 0 24.149 32.053 20.6 33.187l-37.863 19.653c-6.332 8.067-5.1 5.093-3.019 15.907 2.073 13.827 9.285 26.56 3.555 38.56-2.556 4.28-8.852 3.96-10.949-.56" class="B"/><path d="M473.419 2193.748c-3.376 1.8-6.531 5.347-4.583 9.333l34.016 73.386c1.753 3.8 6.797 4.72 9.712 1.733 6.681-6.56 13.916-22.2-.201-57.787-2.792-4.76-9.753-15.32-15.144-32.787 0 0-11.469-1.533-23.8 6.12" class="C"/><path d="M504.664 2254.374a1.74 1.74 0 0 1-.159-.64c-.045-.947.684-1.747 1.632-1.8 9.796-.48 15.233 4.6 15.46 4.813.684.667.712 1.747.059 2.427-.651.693-1.733.72-2.42.067h0c-.188-.173-4.673-4.267-12.931-3.867a1.74 1.74 0 0 1-1.641-1m-4.156-12.8c-.071-.147-.12-.32-.144-.493-.127-.933.533-1.8 1.472-1.933 10.612-1.413 18.475 4.547 18.803 4.8.756.587.889 1.667.312 2.413a1.71 1.71 0 0 1-2.407.307c-.069-.053-7.097-5.333-16.248-4.107-.764.093-1.48-.32-1.788-.987m-4.7-14.573a1.79 1.79 0 0 1-.149-.547c-.096-.947.595-1.787 1.537-1.88 10.899-1.08 19.243 3.973 19.593 4.187a1.72 1.72 0 1 1-1.799 2.933c-.076-.053-7.745-4.667-17.455-3.707a1.7 1.7 0 0 1-1.728-.987" class="E"/><path d="M871.003 2317.521l-4.141-.813c.329-1.68 32.873-169.2 29.053-241.786-3.813-72.453-48.687-172.773-49.139-173.786l3.847-1.733c.456 1.013 45.652 102.053 49.507 175.293 3.847 73.106-28.796 241.133-29.127 242.826" class="I"/><path d="M512.564 2278.201l-39.145-84.453c-2.431 1.507-4.601 3.373-6.257 5.72l35.691 77c1.735 3.733 6.657 4.707 9.607 1.84l.105-.107" fill="#10325b"/><path d="M822.034 1903.615c-25.088 95.04-45.007 169.04-117.34 242.173-47.64 48.173-121.904 70.613-153.618 75.453-10.691 1.627-17.135 2.053-17.135 2.053s-32.113-27.107-20.623-67.546c0 0 5.397-1.52 13.885-4.293 26.496-8.68 81.302-30.987 100.025-55.413 58.597-76.426 31.449-141.12 61.031-207.959l133.774 15.533" class="C"/><path d="M551.076 2221.241c-10.691 1.627-17.135 2.053-17.135 2.053s-32.113-27.107-20.623-67.546c0 0 5.397-1.52 13.885-4.293 0 0-4.305 44.053 23.872 69.786" class="I"/><path d="M804.207 1661.843c1.957-17.013-.72-41.613-3.088-51.667-4.283-19.92-35.911-12.213-30.655 7.373 1.02-.64 4.284 35.453 2.031 45.467-29.681 8.893 59.587 38.147 31.712-1.173" class="B"/><path d="M770.161 1615.909l.111.693.193.947c.735-.493 2.793 19.427 2.812 33.88 13.6 6.173 28.763 3.467 31.537 2.893.607-15.28-1.773-34.227-3.013-41.307-.368-1.667-.635-2.64-.681-2.84a14.56 14.56 0 0 0-.385-1.32c-1.516-4.533-4.953-7.973-9.161-9.64-2.932-1.147-6.212-1.427-9.493-.64-3.244.787-6.009 2.52-8.068 4.84-.092.093-.175.2-.257.293-2.775 3.293-4.191 7.693-3.593 12.2" class="J"/><path d="M823.759 1579.069s-3.019-16.76-10.147-27.493l-8.844 6.28 18.991 21.213" class="N"/><path d="M832.023 1628.189c-9.533 13.453-26.629 19.613-41.216 18.867-4.543-.16-8.977-1.027-13.081-2.747l-.005.013c-1.388-.587-2.72-1.24-4.012-2h-.017c-62.407-45.28-3.92-145.493 41.851-73.773 14.764 19.893 36.215 28.36 16.481 59.64" class="B"/><path d="M798.523 1959.908h-.145c-.584-.027-1.131-.293-1.511-.733a2.11 2.11 0 0 1-.495-1.6l3.233-29.093c.129-1.16 1.18-1.987 2.331-1.867 1.157.133 1.992 1.173 1.864 2.333l-2.893 26.027c.836-.427 1.832-1.107 2.883-2.213 4.379-4.6 9.313-15.84 7.948-43.267-.057-1.16.839-2.16 2.003-2.213 1.152-.067 2.155.84 2.213 2 1.457 29.307-4.295 41.547-9.377 46.667-3.711 3.733-7.224 3.96-8.053 3.96" class="I"/><path d="M801.807 1588.163a2.17 2.17 0 0 0-1.409-2.733c-1.147-.373-2.373.267-2.741 1.413-.367 1.133.265 2.36 1.411 2.733 1.147.36 2.373-.267 2.74-1.413" class="F"/><path d="M531.42 2205.508l-.928-4.12c1-.227 100.549-23.067 154.601-70.626 55.915-49.2 74.101-154.186 87.381-230.853l4.157.72c-13.387 77.28-31.72 183.12-88.75 233.293-54.868 48.28-155.452 71.36-156.461 71.586" class="I"/><path d="M819.405 1582.203a2.18 2.18 0 1 0-4.151-1.333 2.19 2.19 0 0 0 1.411 2.747c1.147.36 2.373-.267 2.74-1.413m-2.588 19.519c-1.236.347-2.533.493-3.677.32-.451-.067-.76-.493-.692-.933.065-.453.495-.76.937-.693 2.869.427 6.513-1.56 6.845-2.88.116-.467-.539-.8-1.108-1-5.02-1.747-9.527-9.973-9.716-10.32-.217-.413-.069-.907.332-1.12.415-.227.901-.067 1.119.333.043.067 4.392 8.013 8.809 9.547 2.408.84 2.315 2.347 2.164 2.947-.393 1.587-2.589 3.107-5.013 3.8" class="F"/><path d="M812.185 1563.629c-12.664-4.253-32.908 4.787-43.307 6.387 0 0 5.093 17.4-10.779 32.96 1.139 16.587-.389 24.147 19.627 41.333l-.005.013c-1.388-.587-2.72-1.24-4.012-2h-.017c-60.015-43.093-7.031-141.906 38.493-78.693" class="J"/><path d="M815.253 1526.803c-8.841-12.107-29.865-16.053-44.359 3.053-11.157 14.707-25.429 16.92-22.988 30.107-24.528 16.333-6.644 43.36-6.644 43.36l13.017-3.733c13.169-14.733 9.777-32.693 9.777-32.693h-.004c3.408-.373 6.945-1.107 9.967-2.427 9.364-4.08 23.624-7.64 35.3-5.373s15.815-18.747 5.933-32.293" class="N"/><path d="M741.111 1614.323c2.543 6.587 8.901 10.267 14.204 8.213 5.303-2.04 7.54-9.04 4.997-15.627-2.543-6.573-8.903-10.253-14.205-8.2-5.303 2.04-7.54 9.04-4.996 15.613" class="B"/><path d="M752.675 1603.176c-.227-.04-5.575-1.16-7.979 1.907-.612.787-.947 1.773-1.039 2.92h0l-.033.32h-.001.001c-.075 2.12.684 4.813 2.279 8.067a.83.83 0 0 0 .968.427c.047-.013.091-.04.137-.053a.83.83 0 0 0 .377-1.107c-1.295-2.64-1.983-4.84-2.089-6.56 4.828.08 8.035 4.947 8.067 5 .2.32.581.453.925.347.072-.013.144-.053.213-.093a.82.82 0 0 0 .257-1.133c-.156-.24-3.668-5.707-9.341-5.827.119-.493.299-.933.576-1.28 1.765-2.267 6.289-1.32 6.331-1.32.451.093.883-.187.981-.627a.84.84 0 0 0-.631-.987" class="F"/><path d="M762.375 1615.483l-7.46-4.667c-.037-.32-.103-.653-.233-.973-.769-1.893-2.932-2.813-4.829-2.04s-2.812 2.933-2.041 4.827c.749 1.84 2.812 2.747 4.672 2.08l7.456 4.653c.573.36 1.247.44 1.848.267a2.29 2.29 0 0 0 .588-4.147" fill="#fdffde"/><path d="M883.632 1884.482c-.312 5.013-.791 9.627-1.436 13.68 0 0-102.686 32.307-193.942-10.067-4.477-21.027-.423-36.333 10.408-78.533 6.789-23.72 3.333-57.507 5.187-69.213 10.4-57.053 50.392-72.56 68.78-78.506 9.427 24.027 37.101 17.533 31.595.013 79.281 20.28 80.102 145.773 79.409 222.626" class="D"/><path d="M791.654 1586.376c-.149 0-.303-.04-.447-.107-.524-.24-.748-.867-.5-1.4.129-.267 3.256-6.733 10.269-8.013a1.04 1.04 0 0 1 1.221.84c.105.573-.272 1.12-.843 1.227-5.965 1.093-8.724 6.787-8.752 6.853a1.06 1.06 0 0 1-.949.6m27.856-9.72c-.144 0-.289-.027-.429-.093-4.78-2.147-8.483-.12-8.637-.04a1.05 1.05 0 1 1-1.037-1.827c.189-.107 4.748-2.64 10.535-.04a1.05 1.05 0 0 1 .527 1.387c-.175.387-.557.613-.957.613" class="F"/><path d="M725.286 1725.189c-39.457-32.173-81.272-75.173-82.016-129.493 3.837-44.507 26.185-85.773 55.308-118.84.983-.72 3.512-4.027 4.492-4.773 6.525-9.32 21.293-2.347 17.219 8.507-15.119 34.613-27.781 72.026-26.171 110.186 3.407 33.24 43.384 64.747 67.833 86.12 31.172 24.667-4.532 71.706-36.665 48.293" class="B"/><path d="M716.16 1923.789c-.159 0-.319-.027-.48-.053-26.133-6.08-25.515-22.867-25.475-23.573.036-.667.385-1.28.94-1.653.555-.36 1.249-.453 1.877-.227 24.816 8.893 50.261 13.52 50.516 13.56a2.11 2.11 0 0 1 1.703 2.453 2.12 2.12 0 0 1-2.449 1.707c-.247-.053-23.871-4.347-47.953-12.613 1.172 4.4 5.552 12.453 21.797 16.227 1.135.267 1.841 1.4 1.577 2.533a2.12 2.12 0 0 1-2.053 1.64" class="I"/><path d="M1030.76 1340.79l-86.28 210.786-210.817-86.226c-35.072-12.827-77.368-30.68-93.65-65.827-52.248-90.92 46.273-201.946 143.026-160.106 1.353.667 36.696 14.933 36.893 15.093 13.908-40.027 35.031-84.053 76.442-98.76 58.224-27 136.384 9.133 153.03 72.04 13.637 36.227-3.196 79.026-18.645 113" class="O"/><path d="M718.614 1484.656c16.355-4.04 19.029-20.04 18.787-29.667-.061-2.893-.055-7.387-4.029-7.147-1.715.12-3.049 1.467-3.217 3.12-.264 8.053-3.787 16.413-10.401 21.12-6.012 4.6-7.009 17.347-1.139 12.573" class="B"/><path d="M770.026 1731.162c-33.016 26.4-79.533-5.173-103.589-44.653-52.392-69.973-26.389-164.306 29.625-207.319 0 0 7.756 10.053 20.685 10.347-6.333 22.68-19.331 71.013-15.856 104.013 4.508 35.907 52.552 49.893 67.313 69.613 14.761 19.733 16.032 55.933 1.821 68m224.977-111.44c2.745 55.92-67.893 99.973-132.304 109.706l-58.475-67.573c18.971-9.333 117.097-19.147 133.896-42.147 8.627-9.707 21.057-50.2 23.268-76.626 0 0 11.639 2.213 22.84-7.413 6.281 21.107 11.995 46.213 10.775 84.053" class="D"/><path d="M814.086 1610.109c-6 0-9.539-3.12-9.74-3.307-.347-.307-.372-.84-.06-1.187s.844-.373 1.191-.067c.257.24 6.265 5.453 16.084 1.2.42-.187.923.013 1.109.44s-.011.933-.439 1.107c-3.059 1.333-5.792 1.813-8.145 1.813" class="F"/><path d="M1030.76 1340.79l-86.28 210.786-124.548-297.066c13.908-40.027 35.031-84.053 76.442-98.76 58.224-27 136.384 9.133 153.03 72.04 13.637 36.227-3.196 79.026-18.645 113" class="L"/><path d="M962.776 1537.23c-10.307-5.173-15.067-15.653-16.237-25.213-.361-2.867-1.027-7.307 2.94-7.667 1.715-.12 3.232 1.013 3.641 2.627 1.44 7.933 6.149 15.68 13.381 19.373 6.62 3.653 2.781 14.733-3.725 10.88" class="B"/><path d="M713.104 1715.536s-5.195 6.28-6.86 13.52c-11.004-7.24-26.369-22.293-39.809-42.547 0 0 22.487 20.773 46.669 29.027m204.57-2.467c-14.157 5.867-30.616 10.987-49.645 15.213 0 0-1.031-6.907-5.019-12.493 0 0 25.631 4.12 54.664-2.72m-122.881-29.347c-22.331.347-26.588-20.56-26.588-20.56 2.78-.947 4.424-1.32 4.424-1.32 6.881 16.187 19.613 17.52 26.391 14.293 8.12-3.853 5.455-13.28 5.204-14.28 2.145.653 4.269 1.4 6.361 2.2.937 6.813.468 19.4-15.792 19.667m-78.045-194.186l-2.052 7.267c-15.604 1.973-25.869-11.093-25.869-11.093 4.415-4.267 7.236-6.52 7.236-6.52s7.756 10.053 20.685 10.347m270.446 56.426c-12.784 9.667-26.817 5.613-26.817 5.613h0c.417-2.907.76-5.747 1.011-8.493 0 0 11.639 2.213 22.84-7.413 0 0 1.28 3.733 2.967 10.293m-103.563 338.519c-.312 5.013-.791 9.627-1.436 13.68 0 0-102.686 32.307-193.942-10.067 0 0-1.749-2.987-1.769-12.64 0 0 45.076 18.053 98.845 21.613 31.625 2.08 71.132-5.773 98.302-12.587" class="G"/><g class="B"><path d="M2984.819 1375.91c-18.173-80.88-47.693-168.133-115.253-220.946-9.147-7.013-21.213 5.973-13.587 14.547 6.04 7.147 11.333 14.853 16.04 22.893 13.84 24.227 22.107 51.067 27.72 78.413 7.133 36.213 10.28 73.666 8.72 110.533-7.08 64.907 91.08 58.6 76.36-5.44"/><path d="M2843.473 1130.431s20.827 3.88 32.04 29.56l-15.867 13.253c-7.92-3.12-18.333-10.133-21.213-15.307-8.4-15.08 5.04-27.507 5.04-27.507m-111.84 37.094s-19.04 13.16-10.187 41.8l21.467 2.867c4.347-7.333 5.96-17.787 5.053-23.64-2.627-17.053-16.333-21.027-16.333-21.027"/></g><path d="M2974.179 2122.708h-167.213l31.28-93.24h167.213zm-18.067 53.867l-15.093 44.96-7.2 21.453h-167.213l31.28-93.24h167.226zm98.653-260.079c-.013-.013-.04-.013-.053 0-6-.493-12.173 2.173-14.387 9.08l-25.787 76.866h-167.226l10.093-30.093 12.987-38.627c3.413-9.707-4.547-16.493-12.893-17.227h-.04c-6.053-.547-12.307 2.093-14.52 9.08l-140.533 418.826c-3.107 9.267 3.787 18.853 13.56 18.853h0c6.147 0 11.6-3.933 13.56-9.76l28-83.466h167.226l-24.96 74.373c-3.12 9.267 3.787 18.853 13.56 18.853h0c6.133 0 11.6-3.92 13.547-9.747l29.213-87.04 15.08-44.947 24.093-71.773 9.067-27.04 31.28-93.24 9.08-27.027 10.093-30.093 12.96-38.627c3.453-9.787-4.6-16.547-13-17.227" fill="#143256"/><path d="M2959.313 2003.175l81.613-.733c-1.147-28.267-5.6-70.08-9.947-99.093l-41.56 1.653 15.72 58.467c.96 7.093-2.027 13.453-8.8 15.747-15.08 6.053-33.587 2.933-42.107 16.307-1.693 3.573 1.12 7.68 5.08 7.653" class="B"/><path d="M3043.312 1994.628c-.307 2.733-.76 6.133-2.107 8.547h-81.933c-3.973.027-6.88-3.853-5.6-7.613 3.027-8.773 13.68-21.573 51.293-23.88 0 0 12.84 3.693 33.853-.307 0 0 5.747 12.16 4.493 23.253" class="D"/><path d="M2977.686 1992.468c-.64 0-1.253-.387-1.52-1.027-3.067-7.347-8.48-9.56-8.707-9.653-4.32-6.587 8.027-1.987 11.76 8.387.467 1.067-.373 2.32-1.533 2.293m12.853-1.666c-.707 0-1.36-.453-1.587-1.147-2.72-8.533-10.2-12.413-10.267-12.453-3.6-7.653 10.267.4 13.427 11.44.347 1.04-.48 2.173-1.573 2.16m14.6-1.934a1.64 1.64 0 0 1-1.547-1.093c-3.173-8.853-10.347-13.627-10.427-13.667-2.667-8 9.84 1.56 13.533 12.547.4 1.053-.44 2.24-1.56 2.213" class="E"/><path d="M2953.726 1995.428l89.586-.8c-.307 2.733-1.04 5.4-2.387 7.813l-81.653.733c-4.027.04-6.947-3.973-5.547-7.747" class="G"/><path d="M2860.7 1435.816c-120.706-25.973-189.32-102.906-139.253-226.493 7.573-14.68 23.64-10.84 21.253 4.853-15.64 103.04 31.72 138.533 125.133 142.6.013-.027.24-.013-.053-.053 51.72 4.867 44.64 83.493-7.08 79.093m6.426 567.252l80.426.107c2.987-19.893-14.56-84.8-19.453-103.106l-43.653 9.12 22.027 52.667s10.173 13.867-3.267 17.627c-14.907 5.08-30.867 3.293-41 13.787-3.013 4.04-.12 9.787 4.92 9.8" class="B"/><path d="M2950.019 1995.388c-.333 2.733-1.093 5.387-2.467 7.787l-81.653-.107c-3.973-.013-6.84-3.92-5.52-7.667 3.12-8.747 13.893-21.44 51.533-23.36 0 0 12.8 3.827 33.853.053 0 0 5.627 12.213 4.253 23.293" class="D"/><path d="M2884.446 1992.548c-.653 0-1.28-.387-1.533-1.04-2.987-7.373-8.387-9.64-8.613-9.733-4.24-6.64 8.053-1.907 11.68 8.507.453 1.053-.4 2.293-1.533 2.267m12.852-1.534a1.67 1.67 0 0 1-1.587-1.16c-2.613-8.507-10.067-12.52-10.147-12.56-3.48-7.693 10.267.52 13.32 11.573a1.67 1.67 0 0 1-1.587 2.147m14.628-1.773c-.68 0-1.32-.44-1.56-1.12-3.08-8.88-10.2-13.72-10.28-13.773-1.787-1.16.067-3.96 1.84-2.76.32.227 8.107 5.48 11.573 15.453.373 1.053-.453 2.213-1.573 2.2" class="E"/><path d="M2860.433 1995.268l89.586.12c-.333 2.733-1.093 5.387-2.467 7.787l-81.653-.107c-4.027 0-6.907-4.04-5.467-7.8" class="G"/><path d="M2859.526 1585.789l171.68-26.133c-37.12-262.893-161.306-272.573-181.466-124-5.96 37.72 4.173 128.186 9.787 150.133" class="O"/><path d="M2850.966 1526.763c-2.16-45.107 17.933-88.653 17.933-88.653l-19.147-2.453c-3.12 30.64-1.507 63.773 1.213 91.106" class="L"/><path d="M2862.886 1178.764l4.747 8.133c6.013 10.747 15.56 29.653 15.56 41.067 0 16.627 40.16-21.147 40.16-21.147s-12.733-18.373-34-36.027c-2.64-2.187-5.44-4.387-8.333-6.533 0 0-5.64 11.893-18.133 14.507M2702.34 1318.07c9.027 50.627 52.293 93.36 95.533 104.773 43.253 11.4 71.026 15.28 71.026 15.28s29.747-83.253-4-85.64c-33.76-2.373-78.826-13.773-102.146-41.347-17.24-20.36-20.48-59.747-20.987-78.92-.187-6.787-.04-11.027-.04-11.027-12.413 4.173-23.68-3.04-23.68-3.04s-1.6 3.187-3.813 8.747c-6.573 16.373-18.64 53.387-11.893 91.173" class="O"/><path d="M3048.899 1942.295s-30.693 16.08-59.84 6.84c-38.28-92.56-56.44-218.893-46.507-310.559-2.613-4-53.64 130.2 1.653 311.306 0 0-19.947 16.267-47.453 10.867-33.6-64.573-110.92-220.106-44.933-425.826 21.76-8.48 146.786-20.533 173-7.813 0 0 28.293 52.04 15.253 122.32-17.36 93.573.147 233.319 6.613 278.333h.04l2.173 14.533" class="D"/><g class="G"><path d="M2889.086 1946.788c4.693 9.08 7.653 13.96 7.653 13.96 27.52 5.413 47.48-10.853 47.48-10.853l-3.693-13.453s-20.253 16.613-51.44 10.347m135.413-427.306s-71.6-22.6-173.186 10.707c0 0-4.24 7.333-2.32 13.28 0 0 108.746-22.373 180.093-7 0 0 .693-8.813-4.587-16.987m24.4 422.812s-30.693 16.08-59.84 6.84c.013 0-1.587-4.387-4.067-11.72 0 .027 30.04 6.68 61.733-9.653l2.173 14.533"/><path d="M2999.606 1942.895h-12.733c-36.92-88.773-53.973-217.146-44.32-304.133 0 0 15.667-8.907 18.213-32.533-7.347 90.653-18.067 191.506 38.84 336.666"/></g><path d="M2978.393 2242.988l-7.2-21.467-15.08-44.947-8.987-26.827h167.2l31.28 93.24zm-71.626-213.519h167.213l31.267 93.24h-167.213zm162.506-103.893c-2.213-6.987-8.467-9.627-14.507-9.08-.013-.013-.04-.013-.053 0-8.333.733-16.293 7.52-12.88 17.227l12.973 38.627 10.107 30.093h-167.24l-25.773-76.866c-2.227-6.907-8.387-9.573-14.4-9.08h-.04c-8.413.68-16.453 7.44-13.013 17.227l12.96 38.627 10.107 30.093 9.08 27.027 31.28 93.24 9.067 27.04 24.08 71.786 15.093 44.933 29.2 87.04a14.3 14.3 0 0 0 13.56 9.747h0c9.773 0 16.667-9.587 13.56-18.853l-24.973-74.373h167.226l28.013 83.466c1.96 5.827 7.413 9.76 13.56 9.76h0c9.773 0 16.667-9.587 13.56-18.853l-140.546-418.826" class="C"/><path d="M2714.233 1226.897c12.6 8.24 27.52 5.293 27.52 5.293l.013.027c-.187-6.787-.04-11.027-.04-11.027-12.413 4.173-23.68-3.04-23.68-3.04s-1.6 3.187-3.813 8.747m148.653-48.133l4.747 8.133c14.387.08 21.72-16.107 21.72-16.107-2.64-2.187-5.44-4.387-8.333-6.533 0 0-5.64 11.893-18.133 14.507" class="L"/><path d="M2889.353 1207.23l-73.293.067-41.493 60.4-22.707-69.68-70.28-20.8 59.267-43.133-1.933-73.266 59.32 43.04 69.08-24.48-22.587 69.72 44.627 58.133" class="H"/><path d="M2735.38 1198.737c-5.547-8.827-1.547-19.213-1.52-24.453.013-2.093-2.347-3.307-4.093-2.16-7.36 4.8-6.44 22.893-4.347 30.28 1.907 7.333 13.253 3.173 9.96-3.667m129.2-45.627c-5.04-4.707-24.173-13.8-30.12-7.92-1.613 1.6-.773 4.493 1.48 4.68.013 0 .027 0 .053.013 8.16.493 16.04 4.733 21.293 10.96 4.973 5.573 13.147-3.08 7.293-7.733" class="B"/><path d="M2893.406 1200.497c22.16-4.493 54.813 6.027 65.4 47.72 8.587 33.76 41.867 28.36 66.693 68.893 25.96 42.373 5.107 80.493-32.347 102.386-69 41.387-180.906-33.773-145.573-115.706 14.947-35.44 7.773-95.573 45.827-103.293" class="N"/><path d="M1732.569 331.886s-13.373-25.853-54.16-18.227c-40.787 7.64-50.413 59.387-64.253 82.946-29.333 49.907-38.12 102.933-22.88 128.4 16.92 28.293 54.28 17.227 108.84 12.16 58.227-5.413 82.613-55.947 46.4-125.44l-13.947-79.84" class="M"/><path d="M1715.649 452.032c15.947 23.387 26.133 137.413 26.467 146.266l83.066-6.133c5.427-41.747-49.92-127.346-100.4-137.48v-.027c-5.68-1.92-9.133-2.627-9.133-2.627" class="P"/><path d="M1952.168 1080.671l-81.093-.893c.2-12.96 3.653-39.133 1.08-53.933l35.013 4.52c-.973 7.107-3.133 22.52 8.667 26.2 15.28 4.787 31.907 3.32 41.453 15.067 2.467 3.947-.453 9.08-5.12 9.04" class="B"/><path d="M1868.689 1071.937c.307 2.747 1.027 5.427 2.387 7.84l81.88.893c3.987.053 6.907-3.84 5.627-7.613-3.013-8.813-13.667-21.667-51.387-24.053 0 0-12.88 3.68-33.96-.373 0 0-5.773 12.173-4.547 23.307" class="C"/><path d="M1934.515 1069.897a1.66 1.66 0 0 0 1.533-1.013c3.08-7.373 8.52-9.573 8.747-9.667 4.347-6.6-8.053-2-11.813 8.387-.467 1.067.373 2.32 1.533 2.293m-12.88-1.693c.707 0 1.36-.453 1.587-1.147 2.747-8.547 10.253-12.427 10.333-12.467 3.96-7.693-10.467.427-13.493 11.453-.36 1.04.48 2.173 1.573 2.16m-14.653-1.959c.68 0 1.32-.427 1.56-1.093 3.2-8.88 10.413-13.64 10.48-13.693 3.08-8.08-10.04 1.613-13.6 12.56a1.68 1.68 0 0 0 1.56 2.227" class="E"/><path d="M1958.542 1072.924l-89.853-.987c.307 2.747 1.027 5.427 2.387 7.84l81.88.893c4.04.053 6.973-3.96 5.587-7.747" fill="#395b96"/><path d="M1695.249 771.045c39.92-1.68 109.453-23.667 139.44 27.12 32.84 55.467 24.8 173.12 21.48 229.986 43.827 14.107 67.373 0 67.373 0 18.68-116.4 80.16-381.519-125.426-344.732 0-.013-137.88-.013-137.88-.013-23.053 47.013-2.44 86.853 35.013 87.64" class="D"/><path d="M1854.915 1080.657l-81.093-.893c.213-12.96 3.667-39.133 1.093-53.92l35 4.52c-.973 7.107-3.4 22.52 8.667 26.2 15.307 4.667 31.92 3.307 41.453 15.067 2.48 3.947-.453 9.08-5.12 9.027" class="B"/><path d="M1771.436 1071.937c.307 2.747 1.04 5.413 2.387 7.827l81.88.907c3.987.04 6.907-3.84 5.64-7.613-3.013-8.813-13.68-21.68-51.4-24.067 0 0-12.88 3.693-33.947-.373 0 0-5.787 12.187-4.56 23.32" class="C"/><path d="M1837.262 1069.897a1.67 1.67 0 0 0 1.533-1.013c3.08-7.373 8.52-9.587 8.747-9.667 4.347-6.613-8.053-2.013-11.813 8.387-.467 1.053.387 2.32 1.533 2.293m-12.88-1.693a1.67 1.67 0 0 0 1.587-1.16c2.747-8.533 10.253-12.413 10.333-12.453 3.96-7.693-10.467.427-13.493 11.44-.36 1.053.48 2.187 1.573 2.173m-14.64-1.973a1.66 1.66 0 0 0 1.56-1.093c3.187-8.867 10.4-13.64 10.467-13.68 3.08-8.08-10.04 1.613-13.587 12.56-.413 1.053.427 2.24 1.56 2.213" class="E"/><path d="M1861.289 1072.924l-89.853-.987c.307 2.747 1.04 5.413 2.387 7.827l81.88.907c4.04.053 6.987-3.96 5.587-7.747" fill="#395b96"/><path d="M1786.889 683.405l11.787 85.96c51.56 20.307 55.027 75.986 59.733 137.04 23.867-94.333 22.04-191.133-71.52-222.999" class="G"/><path d="M1630.823 779.178c43.853 21.987 95.973-6.493 125.346 52.813 23.707 51.933 10.413 151.16 3.907 196.16 43.813 14.107 67.373 0 67.373 0 25.987-100.413 85.413-333.746-82.506-344.746l-147.04-3.507s-21.293 72.08 32.92 99.28" class="D"/><path d="M1785.996 563.299c.8 0 1.44-.693 1.373-1.493-2.747-22.787-26.88-52.32-30.053-50.747-2.16 2.787 25.667 27.253 27.307 50.973a1.38 1.38 0 0 0 1.373 1.267" class="Q"/><path d="M1597.089 656.152c-3.56 25.427-1.787 36.173-1.787 36.173 67.72 8.427 110.413 8.813 192.88-2.707-52.08-155.973 65.133-55.68-72.533-237.586l-34.08 3.08c-38.707 29.107-63.64 67.706-84.48 201.039" class="P"/><path d="M1930.302 692.325h-182.48l36.333-133.76h181.373l-35.227 133.76" class="M"/><path d="M1747.822 691.658v9.093h182.48v-9.093h-182.48" fill="#234270"/><path d="M1786.889 558.565h-6.52l-35.587 133.093h-86.6v9.093h92.68v-8.133l36.027-134.053" fill="#0b274f"/><path d="M1621.569 481.005c-42.067 31.533-64.533 88.266-53.427 139.866 4.253 28.987 22.547 56.547 51.147 64.747 14.133 5.653 80.013 14.733 76.946-8.653-1.053-5.613-6.027-7.68-10.84-9.173-7.947-2.8-16.133-5.893-23.707-9.333-13.56-7.04-31-13.64-33.947-28.867-6.293-35.56 8.28-70.32 34.84-93.533-.04.027.133-.107-.267.187 36.013-26.827-4.533-81.72-40.747-55.24" class="B"/><path d="M1596.356 679.272c21.413 9.56 41.693 12.493 57.293 13.053 0 0-3.6-23.267 13.213-32.853-94.72-71.986 40.56-102.28 14.587-208.053-101.573 1.813-206.426 155.76-85.093 227.853" class="P"/><path d="M1736.422 691.658s-8.133-28.413-56.64-25.133l-10.16 25.133h66.8" class="B"/><g class="Q"><path d="M1642.396 691.538c6.933.773 11.253.787 11.253.787s-3.6-23.267 13.213-32.853c0 0-4.133-2.68-9.547-7.453 0 0-18.427 13.533-14.92 39.52"/><path d="M1658.183 655.992c1.227.027 1.88-1.627.907-2.427-42.067-37.48-21.467-77.146 3.56-102.853 1.227-1.253-.827-3.227-2.027-1.88-26.613 26.6-46.787 70.546-2.44 107.16m-14.88 35.693c7.867-4.573-22.093-2.293-44.88-13.067a1.39 1.39 0 0 0-1.8.76 1.39 1.39 0 0 0 .76 1.8c23.533 9.653 45.613 10.507 45.92 10.507"/></g><path d="M1672.062 493.979c.973 7.28 7.92 9.547 9.653 9.16 24.44-10.44 7.053 22.52 17.107 25.88 8.453 2.827 9.453-8.2 16.827-8.8 10.693-.88 12.867 4.947 16.627 1.413 5.227-4.933-7.427-13.547-5.813-22.373 1.147-6.187 13.467.04 13.293-12.707-.187-12.533-14.52-31.293-14.973-31.867v-.027c-9.027-5.027-28.667-2.733-37.587-2.627-.133-.893-5.747-.613-5.747-.613s-3.933-.867-7.72.56c-1.867 10.187-3.613 31.08-1.667 42" fill="#f4d4be"/><path d="M1714.822 439.912l.827 12.12s1.133 11.653 1.133 33.32c0 30.467-7.52 26.92-17.96 5.64-5.733-11.693-17.373-38.613-17.373-38.613s.053-7.973-.587-12.853l33.96.387" class="B"/><path d="M1674.236 405.232a15.54 15.54 0 0 0 .493 1.707c.72-.587 4.88 19.573 6.387 34.947 14.587 8.533 31.44 7.4 34.333 6.507-.773-22.747-2.693-56.773-20.2-63.12-11.747-3.72-24.187 7.853-21.013 19.96" class="J"/><path d="M1718.396 330.299c44-5.28 50.987 64.187 21.08 89.746l-21.08-89.746" class="M"/><path d="M1666.516 379.246c-2.133 15.173-2.267 32.973 6.2 46.04l.027.013c23.147 37.867 99.76 13.453 78.773-31.453-3.08-5.733-4.827-12.693-5.053-18.613-.693-62.013-73.826-49-79.946 4.013" class="B"/><path d="M1724.409 387.326c2.093-2.107-1.253-5.347-3.293-3.187-2.093 2.107 1.267 5.36 3.293 3.187m19.347 2.573c2.093-2.107-1.253-5.347-3.293-3.187-2.093 2.107 1.253 5.36 3.293 3.187m-11.52 17.2c3.867.613 9.48-.387 5.813-5.027-3.44-3.507-3.84-13.013-3.84-13.107-.027-1.12-1.8-1.067-1.733.053.013.427.427 10.28 4.333 14.267.453.453.907 1.067.587 1.453-.92 1.093-5.28 1.28-7.787-.467-.387-.28-.933-.187-1.2.213-.653 1.813 2.48 2.2 3.827 2.613" class="F"/><path d="M1666.516 379.246c-2.133 15.173-2.267 32.973 6.2 46.04l.027.013c-3.907-9.813-2.44-28.6-2.44-28.6l5.387-6.893c55.173-.733 63.293-42.36 63.293-42.36-24.253-32.573-69.6-3.16-72.466 31.8" class="J"/><path d="M1734.742 342.219s-8.2 40.987-58.133 43.467l-13.373-13.867c-6.227-35.68 36.187-72.213 71.506-29.6" class="M"/><path d="M1655.076 383.726c-1.76 17.347 20.16 19.347 21.533 1.96 1.773-17.36-20.147-19.347-21.533-1.96" class="B"/><path d="M1660.249 379.232h0c2.227-6.88 15.467.467 9.827.733-.013-.307-5.88-3.827-7.707-.773 5.773 2.72 7.707 13.507 4.36 10.013-.013-.053-.707-6.2-5.253-8.52-2.253 15.68-4.307 4.8-1.227-1.453" class="F"/><path d="M1661.796 394.086c-.773 2.4 3.013 3.573 3.72 1.147.773-2.4-3.013-3.56-3.72-1.147" fill="#f4d4be"/><path d="M1716.782 536.992c-.067 5.027 7.827 5.027 7.747 0 .08-5.027-7.827-5.027-7.747 0m7.614 27.28c-.08 5.027 7.813 5.027 7.747 0 .067-5.027-7.827-5.027-7.747 0m0 24.547c-.08 5.027 7.813 5.027 7.747 0 .067-5.027-7.827-5.027-7.747 0" class="Q"/><path d="M1857.529 1008.618l-1.36 19.533c43.827 14.107 67.373 0 67.373 0l3.12-16.653c-.52.267-28.08 13.8-69.133-2.88m-97.453 19.533c43.813 14.107 67.373 0 67.373 0s1.6-5.653 4.08-15.387c0 0-24.28 12.56-69.16 0l-2.293 15.387" class="G"/><path d="M1733.769 691.378c8.627.267-22.76-21.267-32.12-16a1.37 1.37 0 0 0 1.227 1.507c17.667 1.853 29.413 14.44 30.893 14.493m-13.293.494c6.547-2.8-13.773-7.587-23.84-10.307a1.37 1.37 0 0 0-1.627 1.067c-.16.747.32 1.48 1.067 1.627 10.72 2.213 23.32 7.493 24.4 7.613" class="J"/><path d="M1717.222 380.299a.92.92 0 0 0 .6-.213c5.507-4.307 10.52-2.907 10.733-2.84a.98.98 0 0 0 1.213-.667.96.96 0 0 0-.653-1.213c-.24-.08-6.16-1.787-12.493 3.173-.427.333-.507.96-.173 1.387.2.24.48.373.773.373m28.814 2.36a1.05 1.05 0 0 0 .56-.16c.44-.307.56-.92.253-1.36-.12-.2-3.187-4.653-8.28-4.453-.547.013-.96.467-.947 1.013.027.547.48.973 1.027.947 4-.133 6.56 3.547 6.573 3.587a1 1 0 0 0 .813.427m-26.533 25.786h0c-.707.933-.093 3.053 1.947 4.64 2.027 1.56 4.253 1.627 4.96.707.72-.933.107-3.067-1.933-4.64-1.173-.907-2.413-1.307-3.387-1.307-.707 0-1.28.213-1.587.6zm.747 6.187c-2.813-2.173-3.813-5.413-2.293-7.387h0c1.52-1.96 4.907-1.813 7.72.36s3.813 5.413 2.293 7.387c-.72.92-1.84 1.373-3.12 1.373-1.453 0-3.12-.587-4.6-1.733" class="F"/><path d="M2269.421 235.899v136.346c0 22.653-18.36 41-41 41h-327.039c-22.64 0-41-18.347-41-41V235.899c0-22.64 18.36-41 41-41h327.039c22.64 0 41 18.36 41 41" class="K"/><path d="M1860.382 372.246c0 22.653 18.36 41 41 41h16.733v58.533l79.026-58.533h231.279c22.64 0 41-18.347 41-41V235.899c-154.386 154.4-409.039 136.346-409.039 136.346" class="R"/><path d="M2119.635 261.553h-217.826c-6.267 0-11.36-5.08-11.36-11.36 0-6.267 5.093-11.36 11.36-11.36h217.826c14.787.053 14.907 22.653 0 22.72m-129.947 53.88h-87.88c-14.827-.067-14.867-22.653 0-22.707h87.88c14.813.053 14.867 22.64 0 22.707m238.306 0h-185.493c-6.28 0-11.36-5.08-11.36-11.36 0-6.267 5.08-11.347 11.36-11.347h185.493c14.8.053 14.893 22.64 0 22.707m-146.546 53.879h-179.64c-14.787-.053-14.893-22.653 0-22.707h179.64c14.8.053 14.893 22.64 0 22.707" class="H"/><path d="M2209.301 194.9c-275.706 0-339.772 45.973-348.919 54.08-3.4-27.213 11.28-53.867 41-54.08h307.919" class="S"/><path d="M3496.111 1045.577v136.346c0 22.64-18.36 41-41 41h-327.039c-22.64 0-41-18.36-41-41v-136.346c0-22.64 18.36-41.013 41-41.013h327.039c22.64 0 41 18.373 41 41.013" class="K"/><path d="M3087.072 1181.924c0 22.64 18.36 41 41 41h16.733v58.52l79.026-58.52h231.279c22.64 0 41-18.36 41-41v-136.346c-154.386 154.4-409.039 136.346-409.039 136.346" class="R"/><path d="M3346.325 1071.217h-217.826a11.36 11.36 0 0 1-11.36-11.347c0-6.28 5.093-11.36 11.36-11.36h217.826c14.787.053 14.907 22.64 0 22.707m-129.96 53.88h-87.866c-14.827-.053-14.867-22.64 0-22.707h87.866c14.827.067 14.88 22.64 0 22.707m238.32 0h-185.493c-6.28 0-11.36-5.08-11.36-11.347 0-6.28 5.08-11.36 11.36-11.36h185.493c14.787.053 14.893 22.64 0 22.707m-146.547 53.88h-179.64c-14.8-.053-14.893-22.64 0-22.707h179.64c14.787.053 14.893 22.64 0 22.707" class="H"/><path d="M3435.978 1004.564c-275.693 0-339.759 45.987-348.906 54.093-3.413-27.213 11.28-53.88 41-54.093h307.906" class="S"/><path d="M237.21 1057.564v136.346c0 22.64 18.363 41 41.003 41h327.041c22.639 0 41.001-18.36 41.001-41v-136.346c0-22.64-18.363-41.013-41.001-41.013H278.213c-22.64 0-41.003 18.373-41.003 41.013" class="K"/><path d="M646.254 1193.91c0 22.64-18.363 41-41.001 41h-16.739v58.52l-79.017-58.52H278.213c-22.64 0-41.003-18.36-41.003-41v-136.346c154.392 154.4 409.044 136.346 409.044 136.346" class="R"/><path d="M386.998 1083.204h217.827c6.271 0 11.356-5.08 11.356-11.347 0-6.28-5.085-11.36-11.356-11.36H386.998c-14.78.053-14.904 22.64 0 22.707m129.954 53.88h87.873c14.824-.053 14.871-22.64-.001-22.707.001 0-87.872 0-87.872 0-14.824.067-14.871 22.653 0 22.707m-238.313 0h185.5c6.272 0 11.356-5.08 11.356-11.347 0-6.28-5.084-11.36-11.356-11.36h-185.5c-14.792.053-14.896 22.64 0 22.707m146.549 53.88h179.637c14.795-.053 14.895-22.64-.001-22.707.001 0-179.636 0-179.636 0-14.795.053-14.895 22.64 0 22.707" class="H"/><path d="M297.339 1016.551c275.706 0 339.763 45.987 348.915 54.093 3.404-27.213-11.277-53.88-41.004-54.093.003 0-307.911 0-307.911 0" class="S"/><path d="M1322.527 2378.214l-72.582-36.8c2.235-3.56 11.171-11.267 15.857-27.2 25.315-86.106 65.436-168.92 71.674-182.226l67.253 13.92-105.785 175.373c-4.048 5.987-3.257 14 1.856 19.12 10.821 11.76 26.456 16.96 30.663 31.24.865 5.013-4.389 8.867-8.936 6.573" class="B"/><path d="M1251.288 2333.268c-.953 2.613-1.487 5.36-1.344 8.147l73.696 37.36c3.583 1.813 7.964-.4 8.489-4.373 1.201-9.32-2.7-25.707-35.769-44.707 0 0-13.3-2.413-30.557-15.48 0 0-10.667 8.427-14.515 19.053" class="D"/><path d="M1311.758 2360.801c.587.293 1.312.213 1.835-.24 6.076-5.293 11.98-4.867 12.228-4.84 2.145.213 2.464-3.16.307-3.333-.305-.027-7.524-.627-14.733 5.653-.903.747-.693 2.267.364 2.76m-10.894-7.28c.635.307 1.42.2 1.937-.333 6.261-6.467 14.828-6.667 14.913-6.667 7.001-5.2-9.659-4.267-17.317 4.333-.793.787-.54 2.2.467 2.667m-12.38-8.32c.615.307 1.376.213 1.896-.293 6.849-6.6 15.499-7.693 15.585-7.707 6.384-5.933-9.811-3.027-17.907 5.293-.837.773-.603 2.227.425 2.707" class="E"/><path d="M1332.146 2374.254l-80.858-40.987c-.953 2.613-1.487 5.36-1.344 8.147l73.696 37.36c3.631 1.84 8.077-.467 8.507-4.52" class="G"/><path d="M1553.303 2376.507l-82.573-.227c-1.387-4.347 3.253-24.227 1.947-31.44-27.773-153.266-23.827-207.653-24.293-213.733l78.813-6.08-21.747 211.226c-.92 7.173 3.387 13.973 10.253 16.253 15.293 6.04 33.987 2.76 42.693 16.24 1.747 3.6-1.093 7.773-5.093 7.76" class="B"/><path d="M1468.263 2368.401c.333 2.76 1.08 5.453 2.467 7.88l82.613.227c4.013.013 6.933-3.933 5.613-7.72-3.107-8.867-13.96-21.747-52.027-23.84 0 0-12.973 3.813-34.253-.107 0 0-5.747 12.333-4.413 23.56" class="D"/><path d="M1535.716 2365.401c2.773-6.733 8.987-10.827 9.213-10.467 2.013-.76.787-3.933-1.227-3.107-.28.107-7 2.813-10.613 11.667-.707 1.56 1.387 3.04 2.627 1.907m-13-1.6c2.52-7.853 10.627-13.84 10.84-13.44 1.947-.96.373-4-1.533-2.973-.36.187-8.867 4.68-11.987 14.64-.547 1.547 1.493 2.853 2.68 1.773m-14.8-1.867c3.84-11.107 12.987-14.227 11.44-16.933-2.28-2.64-9.747 4.547-14.093 15.107-.613 1.56 1.44 2.933 2.653 1.827" class="E"/><path d="M1558.903 2368.654l-90.64-.253c.333 2.76 1.08 5.453 2.467 7.88l82.613.227c4.067.027 7-4.04 5.56-7.853" class="G"/><g class="B"><path d="M1493.29 1775.549c102.653-22.667 163.066-124.746 163.813-225.319.467-11.693-16.627-15.68-21.453-5.187-37.92 84.546-64.64 139.786-158.12 169.413-39.907 10.48-24.227 71.213 15.76 61.093"/><path d="M1426.356 1714.296c-118.345 4.36-241.703 127.013-83.706 192.12 16.08 6.04 22.547-12.88 9.613-21.813-89.304-71.693 17.44-97.293 81.28-107.64 40.627-5.853 33.627-66.2-7.187-62.667"/></g><path d="M1266.053 1811.656c.881 3.933 2.291 5.987 2.291 5.987-.593-.987 36.952-3.12 48.768 12.747 5.891-.147 18.339-5.76 24.312-13.533 10.453-11.52 32.293-19.92 42.28-23.653l50.787-96.72c-24.76-9.56-176.781 42.88-168.437 115.173" fill="#9358e0"/><path d="M1532.583 2125.028l-1.547 16.813c-104.08 37.933-204.365.507-204.365.507.12-4.333.035-8.76-.204-13.293-2.333-46.08-20.579-102.88-12.487-160.186 8.892-62.92 30.869-97.52 30.869-97.52l172.893 9.24c27.093 62.013 18.787 197.093 14.84 244.439" fill="#ce4abf"/><path d="M1629.236 1515.416c4.507-.893 4.867 9.987 7.867 12.907 3.253-6.613 4.627-14.213 4.68-14.24-.04-9.133-.573-18.253-1.52-27.347 5.76-12.627 8.68 22.187 9.6 25.547a.41.41 0 0 0 .133.013c1.96-9.36 3.413-18.853 4.053-28.387 8.773-11.667 3.507 26.933 3.373 30.547.027.013.04.027.067.027 3.333-8.493 5.627-17.4 6.947-26.427 9.893-10.973 1.493 27.827.187 31.253.027.027.053.04.08.067 3.587-6.293 6.373-13.04 8.8-19.867 10.68-8.893-1.36 23.627-2.907 26.64-.013 2.613-5.16 14.987-14.6 28.293-3.093 4.373-17.08-.96-19.32-5.707-2.12-4.453-3.267-11.067-3.747-13.453-1.693-4.48-8.093-16.52-3.693-19.867" class="B"/><path d="M1348.277 2136.175c.04-.413 4.027-42.627-2.88-119.013-6.8-75.146 21.747-143.8 22.04-144.48l-6.333-2.68c-.307.693-29.523 70.866-22.56 147.773 6.84 75.653 2.92 117.32 2.88 117.733l6.853.667m163.239 3.68c16.387-121.093-10.587-261.026-10.853-262.426l-6.76 1.333c.28 1.387 27.027 140.226 10.787 260.173l6.827.92m-28.667 6.266c5.747-91.506-6.84-263.679-6.96-265.399l-6.867.507c.12 1.72 12.667 173.426 6.947 264.453l6.88.44m-30.934-.214c0-.68.147-68.893-5.04-127.56-5.133-58.227-.04-136.373.013-137.146l-6.867-.467c-.053.8-5.173 79.453 0 138.226 5.147 58.347 5.013 126.253 5.013 126.933l6.88.013m-43.745.108c.027-.64 2.173-65.347 0-127.48-2.147-61.68 10.2-137.72 10.32-138.48l-6.8-1.12c-.12.773-12.573 77.48-10.4 139.84 2.16 61.893.027 126.36 0 127.013l6.88.227m-30.36-6.2c2.64-28.2 1.947-56.533.973-95.746l-.893-40.533c-1.147-62.347 15.867-125.466 16.04-126.093l-6.64-1.813c-.173.64-17.44 64.667-16.293 128.026l.907 40.573c1 40.44 1.653 67.146-.947 94.946l6.853.64" fill="#a523a2"/><g class="B"><path d="M1463.783 1701.562l-29.507-2.733 3.52-37.96 29.493 2.733-3.507 37.96"/><path d="M1413.023 1632.949c-2.947 58.133 90.733 58.24 86.946-.76-.2-11.64-3.613-19.707-3.853-38.253-.533-42.973-60.813-50.84-70.373-6.84-3.76 17.347-11.36 29.693-12.72 45.853"/></g><path d="M1312.134 1825.922c1.763 1.307 3.443 2.773 4.977 4.467 0 0 13.241-.693 24.312-13.533 8.947-10.36 31.093-19.44 39.213-22.533l-8.627-27.147s-22.613 20.507-34.253 40.693c-11.363 19.693-24.98 18.147-25.623 18.053" fill="#7640cc"/><g fill="#9358e0"><path d="M1344.85 1871.349s70.906 26.2 172.893 9.24c2.333-24.587 2.347-71.76-4.027-102.52-13.533-101.24-130.853-132.546-150.693 30.773-4.587 27.4-7.347 39.933-18.173 62.507"/><path d="M1463.93 1699.896l49.787 78.173c63.8-18.68 139.573-76.346 131.733-126.346h-.013c-1.72-6.693-4.8-10.333-4.8-10.333-27.76.187-42.787-20.96-42.787-20.96-43.667 9.907-38.96 73.173-133.92 79.466"/></g><path d="M1491.77 1571.589s22.307 7.4-1.413 43.107c-14.68 22.08 22.747 55.493-7.267 85.466-69.626 91.573-268.525 45.053-160.102-53.347 32.503-17.48 31.103-35.36 42.009-57.84 14.533-29.933 80.44-86.213 126.773-17.387" fill="#662948"/><path d="M1266.053 1811.656c.881 3.933 2.291 5.987 2.291 5.987-.593-.987 36.952-3.12 48.768 12.747 0 0 4.061-.227 9.568-2.587 0 0-23.289-31.133-60.627-16.147m318.796-187.107c32.733 36.493 60.587 27.173 60.587 27.173-1.72-6.693-4.8-10.333-4.8-10.333-27.76.187-42.787-20.96-42.787-20.96-4.92.347-9.147 1.813-13 4.12m-87.559 140.027c.64 1.72 21.267 57.227 21.413 94.36.707-22.16-.213-55.96-4.987-80.866-.44-.08-6.08-2.427-16.427-13.493" fill="#7640cc"/><path d="M1532.583 2125.028l-1.547 16.813c-104.08 37.933-204.365.507-204.365.507.12-4.333.035-8.76-.204-13.293l.017-.013s110.778 32.52 206.098-4.013" fill="#a523a2"/><defs ><path id="B" d="M1757.249 1242.737l-64.907-34.04-64.84 34.173 12.32-72.253-52.533-51.107 72.52-10.613 32.373-65.747 32.493 65.693 72.546 10.467-52.44 51.2 12.467 72.226"/></defs></svg>